<svg xmlns="http://www.w3.org/2000/svg" xmlns:xlink="http://www.w3.org/1999/xlink" width="640" height="640"><defs><path d="M346.23 1.06l12.9 1.31 12.75 1.82 12.58 2.32 12.4 2.8 12.22 3.27 12.02 3.75 11.81 4.19 11.6 4.64 11.37 5.08 11.13 5.5 10.88 5.91 10.62 6.32 10.35 6.71 10.08 7.1 9.78 7.46 9.48 7.83 9.18 8.18 8.85 8.52 8.52 8.85 8.18 9.18 7.83 9.48 7.46 9.78 7.1 10.08 6.71 10.35 6.32 10.62 5.91 10.88 5.5 11.13 5.08 11.37 4.64 11.6 4.19 11.81 3.75 12.02 3.27 12.22 2.8 12.4 2.32 12.58 1.82 12.75 1.31 12.9.79 13.05L640 320l-.27 13.18-.79 13.05-1.31 12.9-1.82 12.75-2.32 12.58-2.8 12.4-3.27 12.22-3.75 12.02-4.19 11.81-4.64 11.6-5.08 11.37-5.5 11.13-5.91 10.88-6.32 10.62-6.71 10.35-7.1 10.08-7.46 9.78-7.83 9.48-8.18 9.18-8.52 8.85-8.85 8.52-9.18 8.18-9.48 7.83-9.78 7.46-10.08 7.1-10.35 6.71-10.62 6.32-10.88 5.91-11.13 5.5-11.37 5.08-11.6 4.64-11.81 4.19-12.02 3.75-12.22 3.27-12.4 2.8-12.58 2.32-12.75 1.82-12.9 1.31-13.05.79L320 640l-13.18-.27-13.05-.79-12.9-1.31-12.75-1.82-12.58-2.32-12.4-2.8-12.22-3.27-12.02-3.75-11.81-4.19-11.6-4.64-11.37-5.08-11.13-5.5-10.88-5.91-10.62-6.32-10.35-6.71-10.08-7.1-9.78-7.46-9.48-7.83-9.18-8.18-8.85-8.52-8.52-8.85-8.18-9.18-7.83-9.48-7.46-9.78-7.1-10.08-6.71-10.35-6.32-10.62-5.91-10.88-5.5-11.13-5.08-11.37-4.64-11.6-4.19-11.81-3.75-12.02-3.27-12.22-2.8-12.4-2.32-12.58-1.82-12.75-1.31-12.9-.79-13.05L0 320l.27-13.18.79-13.05 1.31-12.9 1.82-12.75 2.32-12.58 2.8-12.4 3.27-12.22 3.75-12.02 4.19-11.81 4.64-11.6 5.08-11.37 5.5-11.13 5.91-10.88 6.32-10.62 6.71-10.35 7.1-10.08 7.46-9.78 7.83-9.48 8.18-9.18 8.52-8.85 8.85-8.52 9.18-8.18 9.48-7.83 9.78-7.46 10.08-7.1 10.35-6.71 10.62-6.32 10.88-5.91 11.13-5.5 11.37-5.08 11.6-4.64 11.81-4.19 12.02-3.75 12.22-3.27 12.4-2.8 12.58-2.32 12.75-1.82 12.9-1.31 13.05-.79L320 0l13.18.27 13.05.79zm-49.71 31.02l-11.66 1.18-11.51 1.64-11.37 2.1-11.2 2.53-11.04 2.96-10.86 3.38-10.67 3.79-10.48 4.19-10.27 4.59-10.05 4.97-9.84 5.34-9.59 5.71-9.36 6.06-9.1 6.41-8.84 6.74-8.56 7.07-8.29 7.39-8 7.7-7.7 8-7.39 8.29-7.07 8.56-6.74 8.84-6.41 9.1-6.06 9.36-5.71 9.59-5.34 9.84-4.97 10.05-4.59 10.27-4.19 10.48-3.79 10.67-3.38 10.86-2.96 11.04-2.53 11.2-2.1 11.37-1.64 11.51-1.18 11.66-.72 11.79-.24 11.91.24 11.9.72 11.79 1.18 11.66 1.64 11.51 2.1 11.37 2.53 11.2 2.96 11.04 3.38 10.86 3.79 10.67 4.19 10.48 4.59 10.27 4.97 10.06 5.34 9.83 5.71 9.59 6.06 9.36 6.41 9.1 6.74 8.84 7.07 8.56 7.39 8.29 7.7 8 8 7.7 8.29 7.39 8.56 7.07 8.84 6.74 9.1 6.41 9.36 6.06 9.59 5.71 9.84 5.34 10.05 4.97 10.27 4.59 10.48 4.19 10.67 3.79 10.86 3.38 11.04 2.97 11.2 2.53 11.37 2.09 11.51 1.64 11.66 1.18 11.79.72 11.91.24 11.9-.24 11.79-.72 11.66-1.18 11.51-1.64 11.37-2.09 11.2-2.53 11.04-2.97 10.86-3.38 10.67-3.79 10.48-4.19 10.27-4.59 10.06-4.97 9.83-5.34 9.59-5.71 9.36-6.06 9.1-6.41 8.84-6.74 8.56-7.07 8.29-7.39 8-7.7 7.7-8 7.39-8.29 7.07-8.56 6.74-8.84 6.41-9.1 6.06-9.36 5.71-9.59 5.34-9.83 4.97-10.06 4.59-10.27 4.19-10.48 3.79-10.67 3.38-10.86 2.97-11.04 2.53-11.2 2.09-11.37 1.64-11.51 1.18-11.66.72-11.79.24-11.9-.24-11.91-.72-11.79-1.18-11.66-1.64-11.51-2.09-11.37-2.53-11.2-2.97-11.04-3.38-10.86-3.79-10.67-4.19-10.48-4.59-10.27-4.97-10.05-5.34-9.84-5.71-9.59-6.06-9.36-6.41-9.1-6.74-8.84-7.07-8.56-7.39-8.29-7.7-8-8-7.7-8.29-7.39-8.56-7.07-8.84-6.74-9.1-6.41-9.36-6.06-9.59-5.71-9.83-5.34-10.06-4.97-10.27-4.59-10.48-4.19-10.67-3.79-10.86-3.38-11.04-2.96-11.2-2.53-11.37-2.1-11.51-1.64-11.66-1.18-11.79-.72-11.9-.24-11.91.24-11.79.72z" id="a"/><path d="M374.64 369.83l2.97 2.46 3.49 3.44 4.03 4.49 4.62 5.61 5.26 6.78 5.23 6.62 5.27 6.07 5.3 5.53 5.34 5.02 5.37 4.52 5.41 4.05 5.45 3.58 5.49 3.14 5.52 2.71 5.57 2.31 5.61 1.92 5.66 1.54 5.69 1.2 5.74.86 5.79.54 5.83.25 5.89-.04 5.92-.29 5.98-.54 6.03-.77 6.08-.98 6.13-1.17 6.19-1.33 6.24-1.5 6.29-1.63 6.35-1.74 5.56-1.6-2.09 4.3-4.36 8.18-4.63 8-4.92 7.81-5.19 7.62-5.45 7.42-5.71 7.21-5.96 6.99-6.21 6.78-6.44 6.55-6.67 6.31-6.9 6.07-7.12 5.83-7.33 5.56-7.53 5.31-7.72 5.04-7.92 4.76-8.1 4.48-8.28 4.19-8.44 3.9-8.61 3.59-8.76 3.28-8.92 2.97-9.05 2.64-9.19 2.31-9.32 1.97-9.44 1.64-9.56 1.28-9.66.92-9.76.56-9.86.19-10.49-.22-10.38-.63-10.26-1.04-10.14-1.45-10-1.84-9.87-2.23-9.72-2.6-9.56-2.98-9.4-3.34-9.22-3.69-9.04-4.04-8.86-4.37-8.65-4.71-8.45-5.02-8.24-5.34-8.01-5.64-7.78-5.94-7.54-6.23-7.3-6.5-7.04-6.78-6.78-7.04-6.51-7.3-6.22-7.54-5.94-7.78-5.64-8.02-5.34-8.23-5.03-8.45-4.7-8.66-4.38-8.85-4.03-9.04-3.7-9.23-3.33-9.39-2.98-9.56-2.61-9.72-2.22-9.87-.58-3.11 3.03-.19 7.38-.22 7.42.02 7.48.26 7.53.51 7.58.76 7.63 1 7.68 1.24 7.73 1.49 7.78 1.73 7.84 1.97 7.88 2.23 7.94 2.46 7.99 2.71 8.04 2.96 8.09 3.19 8.14 3.45 8.19 3.69 8.24 3.93 8.29 4.17 8.35 4.43 8.39 4.66 8.45 4.91 12.93 7.37 11.89 6.16 10.91 5.01 9.97 3.94 9.07 2.91 8.21 1.96 7.4 1.07 6.64.23 5.91-.53 5.24-1.24 4.6-1.88 4.01-2.46 3.46-2.97 2.96-3.43 2.5-3.82 2.08-4.16 1.71-4.41 1.38-4.62 1.1-4.76.86-4.84.66-4.85.51-4.81.4-4.69.33-4.52.32-4.29.33-3.98.41-3.63.51-3.2.67-2.71.86-2.16 1.11-1.55 1.39-.88 1.73-.14 2.09.67 2.52 1.52zM341.7 66.31l10.26 1.04 10.14 1.45 10.01 1.84 9.86 2.23 9.72 2.6 9.56 2.98 9.4 3.34 9.22 3.69 9.05 4.04 8.85 4.37 8.65 4.71 8.45 5.02 8.24 5.34 8.01 5.64 7.78 5.94 7.55 6.23 7.29 6.5 7.05 6.78 6.77 7.04 6.51 7.3 6.23 7.54 5.94 7.78 5.64 8.02 5.34 8.23 5.02 8.45 4.7 8.66 4.38 8.85 4.04 9.04 3.69 9.23 3.34 9.39 2.97 9.56 2.61 9.72 2.23 9.87.83 4.52-3.13 1.28-5.96 2.22-6.37 2.12-6.8 1.98-7.25 1.76-7.7 1.5-8.17 1.17-8.65.79-9.13.36-9.64-.15-10.15-.69-10.68-1.31-11.22-1.97-11.76-2.7-12.33-3.48-12.89-4.32-13.49-5.22-14.08-6.17-14.68-7.18-15.31-8.25-4.67-2.5-4.9-2.4-5.13-2.28-5.38-2.17-5.6-2.06-5.84-1.94-6.08-1.84-6.31-1.72-6.55-1.61-6.78-1.49-7.02-1.39-7.25-1.27-7.48-1.16-7.73-1.05-7.95-.93-8.19-.83-8.43-.71-8.66-.6-8.9-.49-9.13-.37-9.37-.26-9.6-.15-9.84-.04-10.07.07-10.31.19-10.54.3-10.78.41-11.01.52-11.25.64-11.49.74-11.71.86-11.96.98-12.19 1.08-7.75.75.53-1.31 4.03-9.04 4.38-8.85 4.7-8.66 5.03-8.45 5.34-8.23 5.64-8.02 5.94-7.78 6.22-7.54 6.51-7.3 6.78-7.04 7.04-6.78 7.3-6.5 7.54-6.23 7.78-5.94 8.01-5.64 8.24-5.34 8.45-5.02 8.65-4.71 8.86-4.37 9.04-4.04 9.22-3.69 9.4-3.34 9.56-2.98 9.72-2.6 9.87-2.23 10-1.84 10.14-1.45 10.26-1.04 10.38-.63 10.49-.22 10.48.22 10.38.63zm-61.97 79.54l-.08.01-.08.02-.07.02-.07.03-.07.04-.07.04-.07.05-.06.06-.05.06-.05.06-.05.08-.04.07-.04.09-5.11 14.06-.06.17-.07.16-.07.16-.08.15-.08.15-.08.15-.09.15-.1.14-.09.15-.11.13-.1.14-.11.13-.11.13-.12.12-.12.12-.13.12-.12.11-.14.11-.13.11-.14.1-.14.1-.14.09-.15.09-.15.08-.15.09-.16.07-.16.07-.16.07-.16.06-14.06 5.12-.09.03-.08.04-.07.05-.06.05-.06.05-.06.06-.05.07-.04.06-.03.07-.03.08-.03.07-.01.08-.02.07v.16l.01.07.01.08.02.07.02.08.03.07.04.07.04.07.05.06.05.06.06.05.07.05.07.05.08.04.09.03 14.04 4.93.16.06.16.07.16.07.16.07.15.08.15.08.15.09.14.09.14.1.14.1.14.11.13.1.13.12.12.11.12.12.12.13.11.12.11.13.11.14.1.14.1.14.09.14.09.15.08.15.08.15.08.15.07.16.07.16.06.17 5.13 14.29.04.09.04.08.04.07.05.07.06.06.06.05.06.05.07.04.07.04.07.03.08.02.07.02.08.01.08.01h.08l.07-.01.08-.01.08-.02.07-.02.07-.03.07-.04.07-.04.07-.05.06-.05.05-.06.05-.07.05-.07.04-.08.04-.08 5.11-14.07.06-.16.07-.16.07-.16.08-.16.08-.15.08-.15.09-.14.09-.15.1-.14.1-.14.11-.13.11-.13.11-.13.12-.13.12-.12.12-.11.13-.12.13-.11.14-.1.14-.1.14-.1.14-.09.15-.09.15-.09.15-.08.16-.08.15-.07.17-.06.16-.07 14.06-5.11.09-.04.08-.04.07-.04.07-.06.06-.05.05-.06.05-.07.04-.06.04-.07.03-.08.02-.07.02-.08.01-.08.01-.07v-.08l-.01-.08-.01-.08-.02-.07-.02-.08-.03-.07-.04-.07-.04-.07-.05-.06-.05-.06-.06-.06-.07-.05-.07-.05-.08-.04-.09-.03-14.06-5.12-.16-.06-.17-.07-.15-.07-.16-.07-.15-.09-.15-.08-.15-.09-.14-.09-.14-.1-.14-.1-.14-.11-.13-.11-.13-.11-.12-.12-.12-.12-.12-.12-.11-.13-.11-.13-.11-.14-.1-.13-.1-.15-.09-.14-.09-.15-.08-.15-.08-.15-.08-.15-.07-.16-.07-.16-.06-.17-5.11-14.06-.04-.09-.04-.07-.05-.08-.05-.06-.06-.06-.06-.06-.06-.05-.07-.04-.07-.04-.07-.03-.08-.02-.07-.02-.08-.01-.08-.01h-.08l-.07.01zm-62.05-42.41l-.08.01-.08.02-.07.02-.08.02-.07.03-.07.03-.07.04-.07.04-.07.05-.06.05-.06.05-.06.06-.05.07-.05.06-.05.08-.04.07-.04.09-.03.08-7.05 19.38-.06.17-.07.16-.07.16-.07.16-.07.15-.08.16-.08.15-.09.15-.09.15-.09.14-.09.15-.1.14-.1.14-.1.13-.11.14-.1.13-.12.13-.11.13-.12.12-.12.12-.12.12-.12.12-.13.11-.13.11-.13.11-.14.11-.13.1-.14.1-.14.1-.15.09-.14.09-.15.09-.15.09-.15.08-.16.08-.15.07-.16.07-.16.07-.16.07-.16.06-19.39 7.04-.08.04-.08.04-.08.04-.07.05-.07.05-.06.05-.06.06-.05.05-.05.07-.05.06-.04.07-.04.07-.03.07-.03.07-.02.08-.02.07-.01.08-.02.07v.23l.01.08.01.08.01.07.02.08.03.07.03.07.03.07.04.07.04.07.05.06.05.07.05.05.06.06.06.05.07.05.07.05.08.04.08.04.09.03 19.35 6.79.17.06.16.07.16.06.16.07.15.08.16.07.15.08.15.09.15.08.14.09.15.1.14.09.14.1.13.1.14.11.13.1.13.11.13.12.12.11.13.12.11.12.12.13.12.12.11.13.11.13.1.14.1.13.1.14.1.14.09.15.09.14.09.15.09.15.08.15.07.15.08.16.07.16.07.16.06.16.06.16 7.08 19.71.03.08.04.08.04.08.05.07.05.07.05.06.06.06.06.06.06.05.07.05.06.04.07.03.08.04.07.03.07.02.08.02.07.02.08.01h.08l.08.01.07-.01h.08l.08-.01.08-.02.07-.02.08-.02.07-.03.07-.03.07-.04.07-.04.06-.05.07-.05.06-.05.05-.06.06-.07.05-.06.04-.08.05-.07.03-.08.04-.09 7.05-19.38.06-.17.06-.16.07-.16.07-.15.08-.16.08-.15.08-.16.08-.15.09-.14.09-.15.09-.14.1-.15.1-.13.1-.14.11-.14.11-.13.11-.13.11-.12.12-.13.12-.12.12-.12.13-.12.12-.11.13-.11.14-.11.13-.11.14-.1.14-.1.14-.1.14-.09.15-.09.14-.09.15-.08.16-.08.15-.08.16-.08.15-.07.16-.07.16-.06.17-.06 19.38-7.05.09-.04.08-.04.08-.04.07-.04.07-.06.06-.05.06-.06.05-.06.06-.06.04-.06.04-.07.04-.07.03-.07.03-.08.03-.07.02-.08.01-.07.01-.08.01-.08v-.16l-.01-.07-.01-.08-.01-.08-.02-.07-.03-.08-.03-.07-.03-.07-.04-.07-.04-.07-.04-.07-.06-.06-.05-.06-.06-.06-.06-.05-.07-.05-.07-.05-.08-.04-.08-.04-.09-.04-19.38-7.04-.17-.06-.16-.07-.16-.07-.15-.07-.16-.07-.15-.08-.16-.08-.15-.09-.14-.09-.15-.09-.14-.09-.14-.1-.14-.1-.14-.1-.13-.11-.14-.11-.13-.11-.12-.11-.13-.12-.12-.12-.12-.12-.12-.12-.11-.13-.11-.13-.11-.13-.11-.14-.1-.13-.1-.14-.1-.14-.09-.15-.09-.14-.09-.15-.08-.15-.08-.15-.08-.16-.08-.15-.07-.16-.07-.16-.06-.16-.06-.17-7.05-19.38-.04-.08-.03-.09-.05-.07-.04-.08-.05-.06-.06-.07-.06-.06-.06-.05-.06-.05-.06-.05-.07-.04-.07-.04-.07-.03-.08-.03-.07-.02-.08-.02-.07-.02-.08-.01-.08-.01h-.16l-.07.01z" id="b"/></defs><use xlink:href="#a" fill="#ffffff"/><use xlink:href="#b" fill="#ffffff"/></svg>