<?xml version="1.0" encoding="UTF-8" standalone="no"?>
<!DOCTYPE svg PUBLIC "-//W3C//DTD SVG 1.1//EN" "http://www.w3.org/Graphics/SVG/1.1/DTD/svg11.dtd">
<svg version="1.1" xmlns="http://www.w3.org/2000/svg" xmlns:xlink="http://www.w3.org/1999/xlink" preserveAspectRatio="xMidYMid meet" viewBox="0 0 640 640" width="640" height="640"><defs><path d="M346.23 1.06L359.13 2.37L371.88 4.19L384.46 6.51L396.86 9.31L409.08 12.58L421.1 16.33L432.91 20.52L444.51 25.16L455.88 30.24L467.01 35.74L477.89 41.65L488.51 47.97L498.86 54.68L508.94 61.78L518.72 69.24L528.2 77.07L537.38 85.25L546.23 93.77L554.75 102.62L562.93 111.8L570.76 121.28L578.22 131.06L585.32 141.14L592.03 151.49L598.35 162.11L604.26 172.99L609.76 184.12L614.84 195.49L619.48 207.09L623.67 218.9L627.42 230.92L630.69 243.14L633.49 255.54L635.81 268.12L637.63 280.87L638.94 293.77L639.73 306.82L640 320L639.73 333.18L638.94 346.23L637.63 359.13L635.81 371.88L633.49 384.46L630.69 396.86L627.42 409.08L623.67 421.1L619.48 432.91L614.84 444.51L609.76 455.88L604.26 467.01L598.35 477.89L592.03 488.51L585.32 498.86L578.22 508.94L570.76 518.72L562.93 528.2L554.75 537.38L546.23 546.23L537.38 554.75L528.2 562.93L518.72 570.76L508.94 578.22L498.86 585.32L488.51 592.03L477.89 598.35L467.01 604.26L455.88 609.76L444.51 614.84L432.91 619.48L421.1 623.67L409.08 627.42L396.86 630.69L384.46 633.49L371.88 635.81L359.13 637.63L346.23 638.94L333.18 639.73L320 640L306.82 639.73L293.77 638.94L280.87 637.63L268.12 635.81L255.54 633.49L243.14 630.69L230.92 627.42L218.9 623.67L207.09 619.48L195.49 614.84L184.12 609.76L172.99 604.26L162.11 598.35L151.49 592.03L141.14 585.32L131.06 578.22L121.28 570.76L111.8 562.93L102.62 554.75L93.77 546.23L85.25 537.38L77.07 528.2L69.24 518.72L61.78 508.94L54.68 498.86L47.97 488.51L41.65 477.89L35.74 467.01L30.24 455.88L25.16 444.51L20.52 432.91L16.33 421.1L12.58 409.08L9.31 396.86L6.51 384.46L4.19 371.88L2.37 359.13L1.06 346.23L0.27 333.18L0 320L0.27 306.82L1.06 293.77L2.37 280.87L4.19 268.12L6.51 255.54L9.31 243.14L12.58 230.92L16.33 218.9L20.52 207.09L25.16 195.49L30.24 184.12L35.74 172.99L41.65 162.11L47.97 151.49L54.68 141.14L61.78 131.06L69.24 121.28L77.07 111.8L85.25 102.62L93.77 93.77L102.62 85.25L111.8 77.07L121.28 69.24L131.06 61.78L141.14 54.68L151.49 47.97L162.11 41.65L172.99 35.74L184.12 30.24L195.49 25.16L207.09 20.52L218.9 16.33L230.92 12.58L243.14 9.31L255.54 6.51L268.12 4.19L280.87 2.37L293.77 1.06L306.82 0.27L320 0L333.18 0.27L346.23 1.06ZM296.52 32.08L284.86 33.26L273.35 34.9L261.98 37L250.78 39.53L239.74 42.49L228.88 45.87L218.21 49.66L207.73 53.85L197.46 58.44L187.41 63.41L177.57 68.75L167.98 74.46L158.62 80.52L149.52 86.93L140.68 93.67L132.12 100.74L123.83 108.13L115.83 115.83L108.13 123.83L100.74 132.12L93.67 140.68L86.93 149.52L80.52 158.62L74.46 167.98L68.75 177.57L63.41 187.41L58.44 197.46L53.85 207.73L49.66 218.21L45.87 228.88L42.49 239.74L39.53 250.78L37 261.98L34.9 273.35L33.26 284.86L32.08 296.52L31.36 308.31L31.12 320.22L31.36 332.12L32.08 343.91L33.26 355.57L34.9 367.08L37 378.45L39.53 389.65L42.49 400.69L45.87 411.55L49.66 422.22L53.85 432.7L58.44 442.97L63.41 453.03L68.75 462.86L74.46 472.45L80.52 481.81L86.93 490.91L93.67 499.75L100.74 508.31L108.13 516.6L115.83 524.6L123.83 532.3L132.12 539.69L140.68 546.76L149.52 553.5L158.62 559.91L167.98 565.97L177.57 571.68L187.41 577.02L197.46 581.99L207.73 586.58L218.21 590.77L228.88 594.56L239.74 597.94L250.78 600.91L261.98 603.44L273.35 605.53L284.86 607.17L296.52 608.35L308.31 609.07L320.22 609.31L332.12 609.07L343.91 608.35L355.57 607.17L367.08 605.53L378.45 603.44L389.65 600.91L400.69 597.94L411.55 594.56L422.22 590.77L432.7 586.58L442.97 581.99L453.03 577.02L462.86 571.68L472.45 565.97L481.81 559.91L490.91 553.5L499.75 546.76L508.31 539.69L516.6 532.3L524.6 524.6L532.3 516.6L539.69 508.31L546.76 499.75L553.5 490.91L559.91 481.81L565.97 472.45L571.68 462.86L577.02 453.03L581.99 442.97L586.58 432.7L590.77 422.22L594.56 411.55L597.94 400.69L600.91 389.65L603.44 378.45L605.53 367.08L607.17 355.57L608.35 343.91L609.07 332.12L609.31 320.22L609.07 308.31L608.35 296.52L607.17 284.86L605.53 273.35L603.44 261.98L600.91 250.78L597.94 239.74L594.56 228.88L590.77 218.21L586.58 207.73L581.99 197.46L577.02 187.41L571.68 177.57L565.97 167.98L559.91 158.62L553.5 149.52L546.76 140.68L539.69 132.12L532.3 123.83L524.6 115.83L516.6 108.13L508.31 100.74L499.75 93.67L490.91 86.93L481.81 80.52L472.45 74.46L462.86 68.75L453.03 63.41L442.97 58.44L432.7 53.85L422.22 49.66L411.55 45.87L400.69 42.49L389.65 39.53L378.45 37L367.08 34.9L355.57 33.26L343.91 32.08L332.12 31.36L320.22 31.12L308.31 31.36L296.52 32.08Z" id="dloyWgZG6"></path><path d="M374.64 369.83L377.61 372.29L381.1 375.73L385.13 380.22L389.75 385.83L395.01 392.61L400.24 399.23L405.51 405.3L410.81 410.83L416.15 415.85L421.52 420.37L426.93 424.42L432.38 428L437.87 431.14L443.39 433.85L448.96 436.16L454.57 438.08L460.23 439.62L465.92 440.82L471.66 441.68L477.45 442.22L483.28 442.47L489.17 442.43L495.09 442.14L501.07 441.6L507.1 440.83L513.18 439.85L519.31 438.68L525.5 437.35L531.74 435.85L538.03 434.22L544.38 432.48L549.94 430.88L547.85 435.18L543.49 443.36L538.86 451.36L533.94 459.17L528.75 466.79L523.3 474.21L517.59 481.42L511.63 488.41L505.42 495.19L498.98 501.74L492.31 508.05L485.41 514.12L478.29 519.95L470.96 525.51L463.43 530.82L455.71 535.86L447.79 540.62L439.69 545.1L431.41 549.29L422.97 553.19L414.36 556.78L405.6 560.06L396.68 563.03L387.63 565.67L378.44 567.98L369.12 569.95L359.68 571.59L350.12 572.87L340.46 573.79L330.7 574.35L320.84 574.54L310.35 574.32L299.97 573.69L289.71 572.65L279.57 571.2L269.57 569.36L259.7 567.13L249.98 564.53L240.42 561.55L231.02 558.21L221.8 554.52L212.76 550.48L203.9 546.11L195.25 541.4L186.8 536.38L178.56 531.04L170.55 525.4L162.77 519.46L155.23 513.23L147.93 506.73L140.89 499.95L134.11 492.91L127.6 485.61L121.38 478.07L115.44 470.29L109.8 462.27L104.46 454.04L99.43 445.59L94.73 436.93L90.35 428.08L86.32 419.04L82.62 409.81L79.29 400.42L76.31 390.86L73.7 381.14L71.48 371.27L70.9 368.16L73.93 367.97L81.31 367.75L88.73 367.77L96.21 368.03L103.74 368.54L111.32 369.3L118.95 370.3L126.63 371.54L134.36 373.03L142.14 374.76L149.98 376.73L157.86 378.96L165.8 381.42L173.79 384.13L181.83 387.09L189.92 390.28L198.06 393.73L206.25 397.42L214.49 401.35L222.78 405.52L231.13 409.95L239.52 414.61L247.97 419.52L260.9 426.89L272.79 433.05L283.7 438.06L293.67 442L302.74 444.91L310.95 446.87L318.35 447.94L324.99 448.17L330.9 447.64L336.14 446.4L340.74 444.52L344.75 442.06L348.21 439.09L351.17 435.66L353.67 431.84L355.75 427.68L357.46 423.27L358.84 418.65L359.94 413.89L360.8 409.05L361.46 404.2L361.97 399.39L362.37 394.7L362.7 390.18L363.02 385.89L363.35 381.91L363.76 378.28L364.27 375.08L364.94 372.37L365.8 370.21L366.91 368.66L368.3 367.78L370.03 367.64L372.12 368.31L374.64 369.83ZM341.7 66.31L351.96 67.35L362.1 68.8L372.11 70.64L381.97 72.87L391.69 75.47L401.25 78.45L410.65 81.79L419.87 85.48L428.92 89.52L437.77 93.89L446.42 98.6L454.87 103.62L463.11 108.96L471.12 114.6L478.9 120.54L486.45 126.77L493.74 133.27L500.79 140.05L507.56 147.09L514.07 154.39L520.3 161.93L526.24 169.71L531.88 177.73L537.22 185.96L542.24 194.41L546.94 203.07L551.32 211.92L555.36 220.96L559.05 230.19L562.39 239.58L565.36 249.14L567.97 258.86L570.2 268.73L571.03 273.25L567.9 274.53L561.94 276.75L555.57 278.87L548.77 280.85L541.52 282.61L533.82 284.11L525.65 285.28L517 286.07L507.87 286.43L498.23 286.28L488.08 285.59L477.4 284.28L466.18 282.31L454.42 279.61L442.09 276.13L429.2 271.81L415.71 266.59L401.63 260.42L386.95 253.24L371.64 244.99L366.97 242.49L362.07 240.09L356.94 237.81L351.56 235.64L345.96 233.58L340.12 231.64L334.04 229.8L327.73 228.08L321.18 226.47L314.4 224.98L307.38 223.59L300.13 222.32L292.65 221.16L284.92 220.11L276.97 219.18L268.78 218.35L260.35 217.64L251.69 217.04L242.79 216.55L233.66 216.18L224.29 215.92L214.69 215.77L204.85 215.73L194.78 215.8L184.47 215.99L173.93 216.29L163.15 216.7L152.14 217.22L140.89 217.86L129.4 218.6L117.69 219.46L105.73 220.44L93.54 221.52L85.79 222.27L86.32 220.96L90.35 211.92L94.73 203.07L99.43 194.41L104.46 185.96L109.8 177.73L115.44 169.71L121.38 161.93L127.6 154.39L134.11 147.09L140.89 140.05L147.93 133.27L155.23 126.77L162.77 120.54L170.55 114.6L178.56 108.96L186.8 103.62L195.25 98.6L203.9 93.89L212.76 89.52L221.8 85.48L231.02 81.79L240.42 78.45L249.98 75.47L259.7 72.87L269.57 70.64L279.57 68.8L289.71 67.35L299.97 66.31L310.35 65.68L320.84 65.46L331.32 65.68L341.7 66.31ZM279.73 145.85L279.65 145.86L279.57 145.88L279.5 145.9L279.43 145.93L279.36 145.97L279.29 146.01L279.22 146.06L279.16 146.12L279.11 146.18L279.06 146.24L279.01 146.32L278.97 146.39L278.93 146.48L273.82 160.54L273.76 160.71L273.69 160.87L273.62 161.03L273.54 161.18L273.46 161.33L273.38 161.48L273.29 161.63L273.19 161.77L273.1 161.92L272.99 162.05L272.89 162.19L272.78 162.32L272.67 162.45L272.55 162.57L272.43 162.69L272.3 162.81L272.18 162.92L272.04 163.03L271.91 163.14L271.77 163.24L271.63 163.34L271.49 163.43L271.34 163.52L271.19 163.6L271.04 163.69L270.88 163.76L270.72 163.83L270.56 163.9L270.4 163.96L256.34 169.08L256.25 169.11L256.17 169.15L256.1 169.2L256.04 169.25L255.98 169.3L255.92 169.36L255.87 169.43L255.83 169.49L255.8 169.56L255.77 169.64L255.74 169.71L255.73 169.79L255.71 169.86L255.71 169.94L255.71 170.02L255.72 170.09L255.73 170.17L255.75 170.24L255.77 170.32L255.8 170.39L255.84 170.46L255.88 170.53L255.93 170.59L255.98 170.65L256.04 170.7L256.11 170.75L256.18 170.8L256.26 170.84L256.35 170.87L270.39 175.8L270.55 175.86L270.71 175.93L270.87 176L271.03 176.07L271.18 176.15L271.33 176.23L271.48 176.32L271.62 176.41L271.76 176.51L271.9 176.61L272.04 176.72L272.17 176.82L272.3 176.94L272.42 177.05L272.54 177.17L272.66 177.3L272.77 177.42L272.88 177.55L272.99 177.69L273.09 177.83L273.19 177.97L273.28 178.11L273.37 178.26L273.45 178.41L273.53 178.56L273.61 178.71L273.68 178.87L273.75 179.03L273.81 179.2L278.94 193.49L278.98 193.58L279.02 193.66L279.06 193.73L279.11 193.8L279.17 193.86L279.23 193.91L279.29 193.96L279.36 194L279.43 194.04L279.5 194.07L279.58 194.09L279.65 194.11L279.73 194.12L279.81 194.13L279.89 194.13L279.96 194.12L280.04 194.11L280.12 194.09L280.19 194.07L280.26 194.04L280.33 194L280.4 193.96L280.47 193.91L280.53 193.86L280.58 193.8L280.63 193.73L280.68 193.66L280.72 193.58L280.76 193.5L285.87 179.43L285.93 179.27L286 179.11L286.07 178.95L286.15 178.79L286.23 178.64L286.31 178.49L286.4 178.35L286.49 178.2L286.59 178.06L286.69 177.92L286.8 177.79L286.91 177.66L287.02 177.53L287.14 177.4L287.26 177.28L287.38 177.17L287.51 177.05L287.64 176.94L287.78 176.84L287.92 176.74L288.06 176.64L288.2 176.55L288.35 176.46L288.5 176.37L288.65 176.29L288.81 176.21L288.96 176.14L289.13 176.08L289.29 176.01L303.35 170.9L303.44 170.86L303.52 170.82L303.59 170.78L303.66 170.72L303.72 170.67L303.77 170.61L303.82 170.54L303.86 170.48L303.9 170.41L303.93 170.33L303.95 170.26L303.97 170.18L303.98 170.1L303.99 170.03L303.99 169.95L303.98 169.87L303.97 169.79L303.95 169.72L303.93 169.64L303.9 169.57L303.86 169.5L303.82 169.43L303.77 169.37L303.72 169.31L303.66 169.25L303.59 169.2L303.52 169.15L303.44 169.11L303.35 169.08L289.29 163.96L289.13 163.9L288.96 163.83L288.81 163.76L288.65 163.69L288.5 163.6L288.35 163.52L288.2 163.43L288.06 163.34L287.92 163.24L287.78 163.14L287.64 163.03L287.51 162.92L287.38 162.81L287.26 162.69L287.14 162.57L287.02 162.45L286.91 162.32L286.8 162.19L286.69 162.05L286.59 161.92L286.49 161.77L286.4 161.63L286.31 161.48L286.23 161.33L286.15 161.18L286.07 161.03L286 160.87L285.93 160.71L285.87 160.54L280.76 146.48L280.72 146.39L280.68 146.32L280.63 146.24L280.58 146.18L280.52 146.12L280.46 146.06L280.4 146.01L280.33 145.97L280.26 145.93L280.19 145.9L280.11 145.88L280.04 145.86L279.96 145.85L279.88 145.84L279.8 145.84L279.73 145.85ZM217.68 103.44L217.6 103.45L217.52 103.47L217.45 103.49L217.37 103.51L217.3 103.54L217.23 103.57L217.16 103.61L217.09 103.65L217.02 103.7L216.96 103.75L216.9 103.8L216.84 103.86L216.79 103.93L216.74 103.99L216.69 104.07L216.65 104.14L216.61 104.23L216.58 104.31L209.53 123.69L209.47 123.86L209.4 124.02L209.33 124.18L209.26 124.34L209.19 124.49L209.11 124.65L209.03 124.8L208.94 124.95L208.85 125.1L208.76 125.24L208.67 125.39L208.57 125.53L208.47 125.67L208.37 125.8L208.26 125.94L208.16 126.07L208.04 126.2L207.93 126.33L207.81 126.45L207.69 126.57L207.57 126.69L207.45 126.81L207.32 126.92L207.19 127.03L207.06 127.14L206.92 127.25L206.79 127.35L206.65 127.45L206.51 127.55L206.36 127.64L206.22 127.73L206.07 127.82L205.92 127.91L205.77 127.99L205.61 128.07L205.46 128.14L205.3 128.21L205.14 128.28L204.98 128.35L204.82 128.41L185.43 135.45L185.35 135.49L185.27 135.53L185.19 135.57L185.12 135.62L185.05 135.67L184.99 135.72L184.93 135.78L184.88 135.83L184.83 135.9L184.78 135.96L184.74 136.03L184.7 136.1L184.67 136.17L184.64 136.24L184.62 136.32L184.6 136.39L184.59 136.47L184.57 136.54L184.57 136.62L184.57 136.7L184.57 136.77L184.58 136.85L184.59 136.93L184.6 137L184.62 137.08L184.65 137.15L184.68 137.22L184.71 137.29L184.75 137.36L184.79 137.43L184.84 137.49L184.89 137.56L184.94 137.61L185 137.67L185.06 137.72L185.13 137.77L185.2 137.82L185.28 137.86L185.36 137.9L185.45 137.93L204.8 144.72L204.97 144.78L205.13 144.85L205.29 144.91L205.45 144.98L205.6 145.06L205.76 145.13L205.91 145.21L206.06 145.3L206.21 145.38L206.35 145.47L206.5 145.57L206.64 145.66L206.78 145.76L206.91 145.86L207.05 145.97L207.18 146.07L207.31 146.18L207.44 146.3L207.56 146.41L207.69 146.53L207.8 146.65L207.92 146.78L208.04 146.9L208.15 147.03L208.26 147.16L208.36 147.3L208.46 147.43L208.56 147.57L208.66 147.71L208.75 147.86L208.84 148L208.93 148.15L209.02 148.3L209.1 148.45L209.17 148.6L209.25 148.76L209.32 148.92L209.39 149.08L209.45 149.24L209.51 149.4L216.59 169.11L216.62 169.19L216.66 169.27L216.7 169.35L216.75 169.42L216.8 169.49L216.85 169.55L216.91 169.61L216.97 169.67L217.03 169.72L217.1 169.77L217.16 169.81L217.23 169.84L217.31 169.88L217.38 169.91L217.45 169.93L217.53 169.95L217.6 169.97L217.68 169.98L217.76 169.98L217.84 169.99L217.91 169.98L217.99 169.98L218.07 169.97L218.15 169.95L218.22 169.93L218.3 169.91L218.37 169.88L218.44 169.85L218.51 169.81L218.58 169.77L218.64 169.72L218.71 169.67L218.77 169.62L218.82 169.56L218.88 169.49L218.93 169.43L218.97 169.35L219.02 169.28L219.05 169.2L219.09 169.11L226.14 149.73L226.2 149.56L226.26 149.4L226.33 149.24L226.4 149.09L226.48 148.93L226.56 148.78L226.64 148.62L226.72 148.47L226.81 148.33L226.9 148.18L226.99 148.04L227.09 147.89L227.19 147.76L227.29 147.62L227.4 147.48L227.51 147.35L227.62 147.22L227.73 147.1L227.85 146.97L227.97 146.85L228.09 146.73L228.22 146.61L228.34 146.5L228.47 146.39L228.61 146.28L228.74 146.17L228.88 146.07L229.02 145.97L229.16 145.87L229.3 145.78L229.45 145.69L229.59 145.6L229.74 145.52L229.9 145.44L230.05 145.36L230.21 145.28L230.36 145.21L230.52 145.14L230.68 145.08L230.85 145.02L250.23 137.97L250.32 137.93L250.4 137.89L250.48 137.85L250.55 137.81L250.62 137.75L250.68 137.7L250.74 137.64L250.79 137.58L250.85 137.52L250.89 137.46L250.93 137.39L250.97 137.32L251 137.25L251.03 137.17L251.06 137.1L251.08 137.02L251.09 136.95L251.1 136.87L251.11 136.79L251.11 136.71L251.11 136.63L251.1 136.56L251.09 136.48L251.08 136.4L251.06 136.33L251.03 136.25L251 136.18L250.97 136.11L250.93 136.04L250.89 135.97L250.85 135.9L250.79 135.84L250.74 135.78L250.68 135.72L250.62 135.67L250.55 135.62L250.48 135.57L250.4 135.53L250.32 135.49L250.23 135.45L230.85 128.41L230.68 128.35L230.52 128.28L230.36 128.21L230.21 128.14L230.05 128.07L229.9 127.99L229.74 127.91L229.59 127.82L229.45 127.73L229.3 127.64L229.16 127.55L229.02 127.45L228.88 127.35L228.74 127.25L228.61 127.14L228.47 127.03L228.34 126.92L228.22 126.81L228.09 126.69L227.97 126.57L227.85 126.45L227.73 126.33L227.62 126.2L227.51 126.07L227.4 125.94L227.29 125.8L227.19 125.67L227.09 125.53L226.99 125.39L226.9 125.24L226.81 125.1L226.72 124.95L226.64 124.8L226.56 124.65L226.48 124.49L226.4 124.34L226.33 124.18L226.26 124.02L226.2 123.86L226.14 123.69L219.09 104.31L219.05 104.23L219.02 104.14L218.97 104.07L218.93 103.99L218.88 103.93L218.82 103.86L218.76 103.8L218.7 103.75L218.64 103.7L218.58 103.65L218.51 103.61L218.44 103.57L218.37 103.54L218.29 103.51L218.22 103.49L218.14 103.47L218.07 103.45L217.99 103.44L217.91 103.43L217.83 103.43L217.75 103.43L217.68 103.44Z" id="i58MktEzqQ"></path></defs><g><g><g><use xlink:href="#dloyWgZG6" opacity="1" fill="#f33535" fill-opacity="1"></use></g><g><use xlink:href="#i58MktEzqQ" opacity="1" fill="#f33535" fill-opacity="1"></use></g></g></g></svg>