<?xml version="1.0" encoding="UTF-8" standalone="no"?>
<!DOCTYPE svg PUBLIC "-//W3C//DTD SVG 1.1//EN" "http://www.w3.org/Graphics/SVG/1.1/DTD/svg11.dtd">
<svg version="1.1" xmlns="http://www.w3.org/2000/svg" xmlns:xlink="http://www.w3.org/1999/xlink" preserveAspectRatio="xMidYMid meet" viewBox="0 0 640 640" width="640" height="640"><defs><path d="M323.75 354.03L328.85 355.05L333.81 356.32L338.65 357.83L343.35 359.57L347.93 361.52L352.39 363.67L356.72 366L360.93 368.49L365.02 371.15L369 373.95L372.85 376.87L376.59 379.91L380.21 383.05L383.72 386.27L387.12 389.57L390.4 392.92L393.58 396.31L396.65 399.74L399.61 403.18L402.47 406.62L405.22 410.05L407.88 413.46L410.43 416.82L412.88 420.13L415.23 423.37L417.49 426.53L419.65 429.59L421.72 432.54L423.7 435.36L425.58 438.05L427.38 440.59L429.09 442.96L430.71 445.14L432.24 447.14L433.69 448.92L435.06 450.49L436.35 451.81L439.95 455.12L443.64 458.19L447.4 461L451.25 463.56L455.18 465.87L459.18 467.94L463.27 469.75L467.44 471.31L471.7 472.63L476.03 473.69L480.44 474.51L484.94 475.07L489.51 475.39L494.17 475.46L498.91 475.28L503.73 474.84L508.63 474.16L513.61 473.23L518.67 472.05L523.82 470.62L529.04 468.94L534.35 467.01L538.81 465.21L537.07 467.9L531.2 476.23L525.03 484.32L518.55 492.16L511.79 499.75L504.74 507.07L497.42 514.11L489.84 520.88L482 527.35L473.91 533.52L465.58 539.39L457.02 544.94L448.23 550.16L439.24 555.05L430.03 559.6L420.63 563.8L411.04 567.64L401.28 571.11L391.34 574.2L381.23 576.91L370.98 579.22L360.57 581.14L350.03 582.64L339.37 583.73L328.58 584.38L317.68 584.6L306.78 584.38L295.99 583.73L285.32 582.64L274.78 581.14L264.38 579.22L254.12 576.91L244.02 574.2L234.08 571.11L224.31 567.64L214.72 563.8L205.32 559.6L196.12 555.05L187.12 550.16L178.34 544.94L169.78 539.39L161.45 533.52L153.36 527.35L145.52 520.88L137.93 514.11L130.61 507.07L123.56 499.75L116.8 492.16L110.33 484.32L104.15 476.23L98.29 467.9L92.74 459.34L87.52 450.56L82.63 441.56L78.08 432.35L73.88 422.95L70.04 413.37L66.57 403.6L65.6 400.49L75.77 402.15L88.34 404.07L100.56 405.79L112.43 407.32L123.95 408.65L135.12 409.79L145.94 410.73L156.41 411.47L166.53 412.02L176.3 412.37L185.73 412.52L194.8 412.48L203.52 412.24L211.9 411.81L219.92 411.18L227.6 410.35L234.92 409.33L241.9 408.11L248.52 406.7L254.8 405.09L260.73 403.28L266.3 401.27L271.53 399.08L276.41 396.68L280.94 394.09L285.12 391.3L288.95 388.32L292.43 385.14L295.56 381.76L298.34 378.19L300.77 374.42L302.85 370.46L304.58 366.29L305.96 361.94L306.99 357.38L307.68 352.64L313.17 352.81L318.53 353.28L318.53 353.28L323.75 354.03ZM350.03 57.36L360.57 58.86L370.98 60.78L381.23 63.09L391.34 65.8L401.28 68.89L411.04 72.36L420.63 76.2L430.03 80.4L439.24 84.95L448.23 89.84L457.02 95.06L465.58 100.61L473.91 106.48L482 112.65L489.84 119.12L497.42 125.89L504.74 132.93L511.79 140.25L518.55 147.84L525.03 155.68L531.2 163.77L537.07 172.1L542.61 180.66L547.84 189.44L552.73 198.44L557.28 207.65L561.47 217.05L565.31 226.63L568.78 236.4L571.88 246.34L574.59 256.44L576.9 266.7L578.82 277.1L580.32 287.64L580.34 287.87L576.7 289.71L567 294.28L557.27 298.52L547.51 302.44L537.72 306.04L527.9 309.32L518.05 312.27L508.16 314.91L498.25 317.22L488.3 319.2L478.32 320.87L468.31 322.21L458.28 323.23L448.2 323.93L438.1 324.3L427.97 324.35L417.81 324.08L407.61 323.49L397.39 322.57L387.13 321.34L376.84 319.78L366.53 317.89L356.18 315.69L345.8 313.16L335.39 310.31L324.94 307.14L314.47 303.64L303.97 299.82L293.43 295.68L282.86 291.22L272.27 286.43L261.64 281.33L250.98 275.9L240.29 270.14L235.23 267.43L230.13 264.88L225.01 262.48L219.85 260.23L214.66 258.14L209.44 256.21L204.19 254.43L198.91 252.81L193.59 251.34L188.25 250.02L182.87 248.87L177.46 247.86L172.02 247.01L166.54 246.32L161.04 245.78L155.5 245.4L149.93 245.17L144.33 245.1L138.7 245.18L133.04 245.42L127.34 245.81L121.62 246.36L115.86 247.06L110.07 247.92L104.25 248.93L98.39 250.1L92.51 251.42L86.59 252.9L80.64 254.54L74.66 256.33L68.65 258.27L62.61 260.37L59.63 261.47L60.77 256.44L63.48 246.34L66.57 236.4L70.04 226.63L73.88 217.05L78.08 207.65L82.63 198.44L87.52 189.44L92.74 180.66L98.29 172.1L104.15 163.77L110.33 155.68L116.8 147.84L123.56 140.25L130.61 132.93L137.93 125.89L145.52 119.12L153.36 112.65L161.45 106.48L169.78 100.61L178.34 95.06L187.12 89.84L196.12 84.95L205.32 80.4L214.72 76.2L224.31 72.36L234.08 68.89L244.02 65.8L254.12 63.09L264.38 60.78L274.78 58.86L285.32 57.36L295.99 56.27L306.78 55.62L317.68 55.4L328.58 55.62L339.37 56.27L339.37 56.27L350.03 57.36Z" id="ajy0FR6MS"></path><path d="M320.14 353L325.41 353.57L330.58 354.36L335.63 355.34L340.58 356.5L345.41 357.83L350.12 359.33L354.73 360.99L359.23 362.78L363.62 364.71L367.89 366.76L372.06 368.93L376.11 371.19L380.06 373.55L383.9 375.99L387.63 378.5L391.25 381.06L394.76 383.68L398.16 386.34L401.46 389.03L404.65 391.74L407.73 394.46L410.7 397.17L413.57 399.88L416.33 402.56L418.98 405.21L421.53 407.82L423.97 410.37L426.31 412.86L428.54 415.28L430.67 417.61L432.69 419.85L434.61 421.98L436.43 424L438.14 425.9L439.75 427.66L441.25 429.27L442.65 430.72L443.95 432.01L447.55 435.34L451.23 438.44L454.97 441.31L458.79 443.96L462.68 446.38L466.65 448.58L470.69 450.55L474.81 452.3L478.99 453.82L483.25 455.12L487.59 456.2L492 457.05L496.48 457.67L501.03 458.07L505.66 458.24L510.37 458.19L515.14 457.91L519.99 457.41L524.91 456.69L529.91 455.74L534.98 454.56L540.12 453.16L545.34 451.53L548.34 450.48L543.16 459.2L537.61 467.76L531.74 476.09L525.57 484.18L519.1 492.02L512.33 499.61L505.29 506.93L497.97 513.97L490.38 520.74L482.54 527.21L474.45 533.38L466.12 539.25L457.56 544.8L448.77 550.02L439.78 554.91L430.57 559.46L421.17 563.66L411.59 567.49L401.82 570.96L391.88 574.06L381.77 576.77L371.52 579.08L361.12 581L350.58 582.5L339.91 583.59L329.12 584.24L318.22 584.46L307.32 584.24L296.53 583.59L285.86 582.5L275.32 581L264.92 579.08L254.66 576.77L244.56 574.06L234.62 570.96L224.85 567.49L215.26 563.66L205.86 559.46L196.66 554.91L187.66 550.02L178.88 544.8L170.32 539.25L161.99 533.38L153.9 527.21L146.06 520.74L138.47 513.97L131.15 506.93L124.11 499.61L117.34 492.02L110.87 484.18L104.7 476.09L98.83 467.76L93.28 459.2L88.06 450.41L83.17 441.42L78.62 432.21L74.42 422.81L70.58 413.23L67.11 403.46L66.65 401.97L69.34 402.54L88.01 406.32L106.01 409.82L123.34 413.04L139.98 415.96L155.95 418.61L171.24 420.97L185.85 423.04L199.79 424.83L213.05 426.33L225.63 427.54L237.53 428.47L248.76 429.12L259.31 429.48L269.18 429.55L278.37 429.34L286.89 428.85L294.73 428.07L301.89 427L308.37 425.65L314.18 424.01L319.31 422.08L323.76 419.88L327.53 417.38L330.63 414.6L333.05 411.54L334.79 408.19L335.85 404.55L336.24 400.63L335.95 396.42L334.98 391.93L333.34 387.15L331.01 382.09L328.01 376.74L324.34 371.11L319.98 365.19L314.95 358.98L309.24 352.5L314.74 352.63L320.14 353ZM553.4 291.68L545.89 292.71L538.26 293.47L530.51 293.96L522.62 294.18L514.62 294.13L506.48 293.8L498.23 293.2L489.84 292.33L481.33 291.18L472.7 289.76L463.94 288.07L455.05 286.11L446.04 283.87L436.91 281.37L427.64 278.59L418.26 275.53L408.74 272.21L399.1 268.61L389.34 264.74L379.45 260.6L369.43 256.18L359.29 251.49L349.03 246.53L338.64 241.3L328.12 235.8L317.47 230.02L312.37 227.33L307.13 224.85L301.77 222.58L296.28 220.51L290.67 218.64L284.93 216.99L279.06 215.53L273.07 214.28L266.95 213.24L260.71 212.4L254.34 211.77L247.84 211.34L241.22 211.11L234.47 211.09L227.59 211.28L220.59 211.67L213.46 212.27L206.21 213.07L198.83 214.08L191.32 215.29L183.69 216.71L175.93 218.33L168.04 220.16L160.03 222.19L151.89 224.43L143.63 226.87L135.24 229.52L126.72 232.37L118.08 235.43L109.31 238.69L100.42 242.16L91.4 245.83L82.25 249.71L72.98 253.79L63.58 258.08L60.59 259.49L61.31 256.3L64.02 246.2L67.11 236.26L70.58 226.49L74.42 216.9L78.62 207.5L83.17 198.3L88.06 189.3L93.28 180.52L98.83 171.96L104.7 163.63L110.87 155.54L117.34 147.7L124.11 140.11L131.15 132.79L138.47 125.75L146.06 118.98L153.9 112.51L161.99 106.34L170.32 100.47L178.88 94.92L187.66 89.7L196.66 84.81L205.86 80.26L210.83 78.04L397.53 228.41L397.73 228.57L397.93 228.71L398.14 228.85L398.35 228.97L398.57 229.09L398.79 229.2L399.01 229.3L399.23 229.38L399.46 229.46L399.69 229.53L399.92 229.59L400.15 229.65L400.38 229.69L400.62 229.72L400.85 229.75L401.08 229.76L401.32 229.77L401.56 229.76L401.79 229.75L402.02 229.73L402.26 229.7L402.49 229.66L402.72 229.62L402.95 229.56L403.17 229.5L403.4 229.42L403.62 229.34L403.84 229.25L404.05 229.15L404.27 229.04L404.47 228.92L404.68 228.8L404.88 228.66L405.07 228.52L405.26 228.37L405.45 228.21L405.63 228.04L405.8 227.86L405.97 227.68L406.13 227.49L408.36 224.72L408.52 224.52L408.66 224.31L408.8 224.11L408.92 223.89L409.04 223.68L409.15 223.46L409.25 223.24L409.33 223.02L409.41 222.79L409.48 222.56L409.54 222.33L409.6 222.1L409.64 221.87L409.67 221.63L409.7 221.4L409.71 221.16L409.72 220.93L409.72 220.69L409.7 220.46L409.68 220.22L409.65 219.99L409.61 219.76L409.57 219.53L409.51 219.3L409.45 219.07L409.37 218.85L409.29 218.63L409.2 218.41L409.1 218.19L408.99 217.98L408.87 217.77L408.75 217.57L408.61 217.37L408.47 217.17L408.32 216.98L408.16 216.8L407.99 216.62L407.82 216.44L407.63 216.27L407.44 216.11L227.59 71.25L234.62 68.75L244.56 65.66L254.66 62.95L264.92 60.63L268.8 59.92L558.32 290.8L553.4 291.68ZM339.91 56.13L350.58 57.22L361.12 58.72L371.52 60.63L381.77 62.95L391.88 65.66L401.82 68.75L411.59 72.22L421.17 76.06L430.57 80.26L439.78 84.81L448.77 89.7L457.56 94.92L466.12 100.47L474.45 106.34L482.54 112.51L490.38 118.98L497.97 125.75L505.29 132.79L512.33 140.11L519.1 147.7L525.57 155.54L531.74 163.63L537.61 171.96L543.16 180.52L548.38 189.3L553.27 198.3L557.82 207.5L562.02 216.9L565.85 226.49L569.32 236.26L572.42 246.2L575.13 256.3L577.44 266.56L579.35 276.94L302.05 55.8L307.32 55.48L318.22 55.25L329.12 55.48L339.91 56.13Z" id="c2KWTY8nDY"></path><path d="M359.13 1.95L371.88 3.77L384.46 6.09L396.86 8.9L409.08 12.18L421.1 15.93L432.91 20.14L444.51 24.79L455.88 29.88L467.01 35.39L477.89 41.32L488.51 47.65L498.86 54.38L508.94 61.48L518.72 68.97L528.2 76.81L537.38 85.01L546.23 93.55L554.75 102.42L562.93 111.62L570.76 121.12L578.22 130.93L585.32 141.02L592.03 151.4L598.35 162.05L604.26 172.95L609.76 184.11L614.84 195.5L619.48 207.12L623.67 218.96L627.42 231.01L630.69 243.25L633.49 255.68L635.81 268.29L637.63 281.07L638.94 294L639.73 307.07L640 320.29L639.73 333.5L638.94 346.57L637.63 359.5L635.81 372.28L633.49 384.89L630.69 397.32L627.42 409.56L623.67 421.61L619.48 433.45L614.84 445.07L609.76 456.47L604.26 467.62L598.35 478.53L592.03 489.17L585.32 499.55L578.22 509.64L570.76 519.45L562.93 528.95L554.75 538.15L546.23 547.02L537.38 555.56L528.2 563.76L518.72 571.6L508.94 579.09L498.86 586.2L488.51 592.92L477.89 599.25L467.01 605.18L455.88 610.69L444.51 615.78L432.91 620.43L421.1 624.64L409.08 628.39L396.86 631.67L384.46 634.48L371.88 636.8L359.13 638.62L346.23 639.94L333.18 640.73L320 641L306.82 640.73L293.77 639.94L280.87 638.62L268.12 636.8L255.54 634.48L243.14 631.67L230.92 628.39L218.9 624.64L207.09 620.43L195.49 615.78L184.12 610.69L172.99 605.18L162.11 599.25L151.49 592.92L141.14 586.2L131.06 579.09L121.28 571.6L111.8 563.76L102.62 555.56L93.77 547.02L85.25 538.15L77.07 528.95L69.24 519.45L61.78 509.64L54.68 499.55L47.97 489.17L41.65 478.53L35.74 467.62L30.24 456.47L25.16 445.07L20.52 433.45L16.33 421.61L12.58 409.56L9.31 397.32L6.51 384.89L4.19 372.28L2.37 359.5L1.06 346.57L0.27 333.5L0 320.29L0.27 307.07L1.06 294L2.37 281.07L4.19 268.29L6.51 255.68L9.31 243.25L12.58 231.01L16.33 218.96L20.52 207.12L25.16 195.5L30.24 184.11L35.74 172.95L41.65 162.05L47.97 151.4L54.68 141.02L61.78 130.93L69.24 121.12L77.07 111.62L85.25 102.42L93.77 93.55L102.62 85.01L111.8 76.81L121.28 68.97L131.06 61.48L141.14 54.38L151.49 47.65L162.11 41.32L172.99 35.39L184.12 29.88L195.49 24.79L207.09 20.14L218.9 15.93L230.92 12.18L243.14 8.9L255.54 6.09L268.12 3.77L280.87 1.95L293.77 0.64L306.82 -0.16L320 -0.43L333.18 -0.16L346.23 0.64L346.23 0.64L359.13 1.95ZM284.54 27.46L272.99 29.14L261.59 31.28L250.34 33.87L239.27 36.9L228.38 40.36L217.67 44.23L207.16 48.52L196.86 53.22L186.78 58.3L176.91 63.76L167.29 69.6L157.91 75.8L148.78 82.36L139.91 89.26L131.31 96.49L123 104.05L114.98 111.93L107.26 120.11L99.84 128.59L92.75 137.35L85.98 146.39L79.56 155.7L73.47 165.27L67.75 175.09L62.39 185.14L57.4 195.43L52.8 205.93L48.6 216.65L44.79 227.57L41.4 238.68L38.43 249.97L35.9 261.43L33.8 273.06L32.15 284.84L30.96 296.76L30.24 308.82L30 321L30.24 333.18L30.96 345.24L32.15 357.16L33.8 368.94L35.9 380.57L38.43 392.03L41.4 403.32L44.79 414.43L48.6 425.35L52.8 436.07L57.4 446.57L62.39 456.86L67.75 466.91L73.47 476.73L79.56 486.3L85.98 495.61L92.75 504.65L99.84 513.41L107.26 521.89L114.98 530.07L123 537.95L131.31 545.51L139.91 552.74L148.78 559.64L157.91 566.2L167.29 572.4L176.91 578.24L186.78 583.7L196.86 588.78L207.16 593.48L217.67 597.77L228.38 601.64L239.27 605.1L250.34 608.13L261.59 610.72L272.99 612.86L284.54 614.54L296.23 615.75L308.05 616.48L320 616.73L331.95 616.48L343.77 615.75L355.46 614.54L367.01 612.86L378.41 610.72L389.66 608.13L400.73 605.1L411.62 601.64L422.33 597.77L432.84 593.48L443.14 588.78L453.22 583.7L463.09 578.24L472.71 572.4L482.09 566.2L491.22 559.64L500.09 552.74L508.69 545.51L517 537.95L525.02 530.07L532.74 521.89L540.16 513.41L547.25 504.65L554.02 495.61L560.44 486.3L566.53 476.73L572.25 466.91L577.61 456.86L582.6 446.57L587.2 436.07L591.4 425.35L595.21 414.43L598.6 403.32L601.57 392.03L604.1 380.57L606.2 368.94L607.85 357.16L609.04 345.24L609.76 333.18L610 321L609.76 308.82L609.04 296.76L607.85 284.84L606.2 273.06L604.1 261.43L601.57 249.97L598.6 238.68L595.21 227.57L591.4 216.65L587.2 205.93L582.6 195.43L577.61 185.14L572.25 175.09L566.53 165.27L560.44 155.7L554.02 146.39L547.25 137.35L540.16 128.59L532.74 120.11L525.02 111.93L517 104.05L508.69 96.49L500.09 89.26L491.22 82.36L482.09 75.8L472.71 69.6L463.09 63.76L453.22 58.3L443.14 53.22L432.84 48.52L422.33 44.23L411.62 40.36L400.73 36.9L389.66 33.87L378.41 31.28L367.01 29.14L355.46 27.46L343.77 26.25L331.95 25.52L320 25.27L308.05 25.52L296.23 26.25L296.23 26.25L284.54 27.46Z" id="d1SROT6CEq"></path><path d="M612.03 272.59L614.88 284.19L617.23 295.8L619.09 307.41L620.45 319L621.34 330.57L621.75 342.1L621.69 353.57L621.17 364.99L620.19 376.34L618.77 387.6L616.9 398.76L614.6 409.82L611.88 420.76L608.73 431.57L605.17 442.24L601.2 452.75L596.83 463.1L592.06 473.28L586.91 483.26L581.38 493.05L575.48 502.63L569.21 511.98L562.58 521.1L555.6 529.98L548.27 538.6L540.6 546.95L532.6 555.02L524.27 562.8L515.63 570.27L506.67 577.44L497.41 584.27L487.85 590.77L478 596.92L467.86 602.71L457.44 608.13L446.75 613.17L435.8 617.81L424.59 622.04L413.13 625.86L401.43 629.25L389.6 632.17L377.77 634.59L365.94 636.53L354.14 637.99L342.36 638.97L330.63 639.48L318.96 639.54L307.35 639.14L295.82 638.29L284.38 637L273.04 635.28L261.82 633.12L250.72 630.55L239.75 627.56L228.94 624.16L218.28 620.36L207.8 616.17L197.49 611.58L187.39 606.62L177.49 601.27L167.8 595.56L158.35 589.49L149.14 583.06L140.18 576.28L131.48 569.16L123.07 561.7L114.93 553.92L107.1 545.8L99.58 537.38L92.38 528.64L85.52 519.6L79 510.26L72.84 500.64L67.05 490.72L61.64 480.54L56.63 470.08L52.01 459.35L47.82 448.37L44.05 437.14L40.72 425.67L37.86 414.07L36.98 409.72L40.47 420.09L44.66 431.07L49.28 441.8L54.29 452.26L59.7 462.44L65.49 472.36L71.65 481.98L78.17 491.32L85.03 500.36L92.23 509.1L99.75 517.52L107.58 525.64L115.71 533.42L124.13 540.88L132.83 548L141.79 554.78L151 561.21L160.45 567.28L170.14 572.99L180.04 578.34L190.14 583.3L200.45 587.89L210.93 592.08L221.59 595.88L232.4 599.28L243.37 602.27L254.47 604.84L265.69 607L277.03 608.72L288.47 610.01L300 610.86L311.61 611.26L323.28 611.2L335.01 610.69L346.79 609.71L358.59 608.25L370.42 606.31L382.25 603.89L394.08 600.97L405.78 597.58L417.24 593.76L428.45 589.53L439.4 584.89L450.09 579.85L460.51 574.44L470.64 568.64L480.5 562.49L490.06 555.99L499.32 549.16L508.28 541.99L516.92 534.52L525.25 526.74L533.25 518.67L540.92 510.32L548.25 501.7L555.23 492.82L561.86 483.7L568.13 474.35L574.03 464.77L579.56 454.98L584.71 445L589.48 434.82L593.85 424.47L597.81 413.96L601.38 403.29L604.52 392.48L607.25 381.54L609.55 370.48L611.42 359.32L612.84 348.06L613.81 336.71L614.34 325.29L614.39 313.82L613.99 302.29L613.1 290.72L611.73 279.13L609.88 267.52L608.41 260.26L608.7 261.11L612.03 272.59ZM351.51 2.1L363.94 3.58L376.25 5.53L388.45 7.96L400.52 10.85L412.44 14.19L424.2 17.99L435.78 22.23L447.19 26.9L458.39 32L469.39 37.52L480.17 43.46L490.71 49.8L501 56.54L511.03 63.67L520.79 71.18L530.27 79.07L539.44 87.33L548.31 95.95L556.85 104.93L565.05 114.25L572.91 123.92L580.41 133.91L587.53 144.24L594.26 154.88L600.59 165.83L606.52 177.08L612.01 188.63L617.07 200.47L621.68 212.6L625.83 224.99L629.5 237.66L632.65 250.46L633.33 253.8L633.18 253.27L629.03 240.88L624.42 228.75L619.36 216.91L613.87 205.36L607.94 194.11L601.61 183.16L594.88 172.52L587.76 162.19L580.26 152.2L572.41 142.53L564.2 133.21L555.66 124.23L546.79 115.61L537.62 107.35L528.14 99.46L518.38 91.95L508.35 84.82L498.06 78.08L487.52 71.74L476.74 65.8L465.75 60.28L454.54 55.18L443.13 50.51L431.55 46.27L419.79 42.47L407.87 39.13L395.8 36.24L383.61 33.81L371.29 31.86L358.86 30.38L346.34 29.39L333.73 28.89L321.06 28.9L308.32 29.41L295.55 30.44L282.74 31.99L269.91 34.07L257.07 36.69L244.24 39.85L231.55 43.52L219.12 47.68L206.97 52.29L195.1 57.35L183.52 62.85L172.24 68.77L161.26 75.11L150.59 81.84L140.24 88.96L130.22 96.45L120.53 104.3L111.18 112.5L102.17 121.04L93.52 129.89L85.24 139.06L77.32 148.53L69.78 158.28L62.63 168.3L55.86 178.58L49.5 189.1L43.54 199.87L38 210.85L32.87 222.04L28.18 233.43L23.92 245L20.1 256.74L16.74 268.64L13.83 280.68L11.38 292.86L9.41 305.16L7.92 317.56L6.91 330.06L6.4 342.64L6.39 355.29L6.89 368L7.91 380.75L9.44 393.54L11.51 406.34L13.44 415.81L9.92 403.67L6.77 390.87L4.16 378.06L2.09 365.26L0.56 352.47L-0.46 339.72L-0.96 327.01L-0.95 314.36L-0.44 301.78L0.57 289.28L2.06 276.88L4.03 264.58L6.48 252.4L9.38 240.36L12.75 228.46L16.57 216.72L20.83 205.15L25.52 193.76L30.65 182.57L36.19 171.59L42.15 160.83L48.51 150.3L55.28 140.02L62.43 130L69.97 120.25L77.89 110.78L86.17 101.61L94.82 92.76L103.82 84.22L113.18 76.02L122.87 68.17L132.89 60.68L143.24 53.56L153.91 46.83L164.89 40.49L176.17 34.57L187.75 29.07L199.62 24.01L211.77 19.4L224.2 15.24L236.89 11.57L249.72 8.41L262.55 5.79L275.38 3.71L288.19 2.16L300.97 1.13L313.71 0.62L326.38 0.61L338.99 1.11L351.51 2.1Z" id="dc3u0e2Ml"></path></defs><g><g><g><use xlink:href="#ajy0FR6MS" opacity="0.4" fill="#f33535" fill-opacity="1"></use></g><g><use xlink:href="#c2KWTY8nDY" opacity="1" fill="#f33535" fill-opacity="1"></use></g><g><use xlink:href="#d1SROT6CEq" opacity="0.55" fill="#f33535" fill-opacity="1"></use></g><g><use xlink:href="#dc3u0e2Ml" opacity="1" fill="#f33535" fill-opacity="1"></use></g></g></g></svg>