<?xml version="1.0" encoding="UTF-8" standalone="no"?>
<!DOCTYPE svg PUBLIC "-//W3C//DTD SVG 1.1//EN" "http://www.w3.org/Graphics/SVG/1.1/DTD/svg11.dtd">
<svg version="1.1" xmlns="http://www.w3.org/2000/svg" xmlns:xlink="http://www.w3.org/1999/xlink" preserveAspectRatio="xMidYMid meet" viewBox="0 0 640 640" width="640" height="640"><defs><path d="M364.48 22.35L376.52 23.58L388.41 25.27L400.15 27.43L411.73 30.05L423.13 33.1L434.35 36.6L445.38 40.51L456.2 44.85L466.81 49.58L477.19 54.72L487.35 60.24L497.26 66.13L506.92 72.39L516.32 79.01L525.45 85.98L534.31 93.29L542.87 100.92L551.13 108.87L559.08 117.13L566.71 125.69L574.02 134.55L580.99 143.68L587.61 153.08L593.87 162.74L599.76 172.65L605.28 182.81L610.42 193.19L615.15 203.8L619.49 214.62L623.4 225.65L626.9 236.87L629.95 248.27L632.57 259.85L634.73 271.59L636.42 283.48L637.65 295.52L638.39 307.7L638.64 320L638.39 332.3L637.65 344.48L636.42 356.52L634.73 368.41L632.57 380.15L629.95 391.73L626.9 403.13L623.4 414.35L619.49 425.38L615.15 436.2L610.42 446.81L605.28 457.19L599.76 467.35L593.87 477.26L587.61 486.92L580.99 496.32L574.02 505.45L566.71 514.31L559.08 522.87L551.13 531.13L542.87 539.08L534.31 546.71L525.45 554.02L516.32 560.99L506.92 567.61L497.26 573.87L487.35 579.76L477.19 585.28L466.81 590.42L456.2 595.15L445.38 599.49L434.35 603.4L423.13 606.9L411.73 609.95L400.15 612.57L388.41 614.73L376.52 616.42L364.48 617.65L352.3 618.39L340 618.64L327.7 618.39L315.52 617.65L303.48 616.42L291.59 614.73L279.85 612.57L268.27 609.95L256.87 606.9L245.65 603.4L234.62 599.49L223.8 595.15L213.19 590.42L202.81 585.28L192.65 579.76L182.74 573.87L173.08 567.61L163.68 560.99L154.55 554.02L145.69 546.71L137.13 539.08L128.87 531.13L120.92 522.87L113.29 514.31L105.98 505.45L99.01 496.32L92.39 486.92L86.13 477.26L80.24 467.35L74.72 457.19L69.58 446.81L64.85 436.2L60.51 425.38L56.6 414.35L53.1 403.13L50.05 391.73L47.43 380.15L45.27 368.41L43.58 356.52L42.35 344.48L41.61 332.3L41.36 320L41.61 307.7L42.35 295.52L43.58 283.48L45.27 271.59L47.43 259.85L50.05 248.27L53.1 236.87L56.6 225.65L60.51 214.62L64.85 203.8L69.58 193.19L74.72 182.81L80.24 172.65L86.13 162.74L92.39 153.08L99.01 143.68L105.98 134.55L113.29 125.69L120.92 117.13L128.87 108.87L137.13 100.92L145.69 93.29L154.55 85.98L163.68 79.01L173.08 72.39L182.74 66.13L192.65 60.24L202.81 54.72L213.19 49.58L223.8 44.85L234.62 40.51L245.65 36.6L256.87 33.1L268.27 30.05L279.85 27.43L291.59 25.27L303.48 23.58L315.52 22.35L327.7 21.61L340 21.36L352.3 21.61L364.48 22.35ZM318.09 51.3L307.21 52.4L296.46 53.94L285.86 55.89L275.4 58.25L265.1 61.01L254.96 64.17L245 67.7L235.22 71.62L225.64 75.9L216.26 80.54L207.08 85.52L198.13 90.85L189.4 96.51L180.9 102.49L172.66 108.78L164.66 115.38L156.93 122.28L149.46 129.46L142.28 136.93L135.38 144.66L128.78 152.66L122.49 160.9L116.51 169.4L110.85 178.13L105.52 187.08L100.54 196.26L95.9 205.64L91.62 215.22L87.7 225L84.17 234.96L81.01 245.1L78.25 255.4L75.89 265.86L73.94 276.46L72.4 287.21L71.3 298.09L70.63 309.09L70.4 320.2L70.63 331.31L71.3 342.32L72.4 353.19L73.94 363.94L75.89 374.55L78.25 385L81.01 395.31L84.17 405.44L87.7 415.4L91.62 425.18L95.9 434.76L100.54 444.15L105.52 453.32L110.85 462.28L116.51 471L122.49 479.5L128.78 487.75L135.38 495.74L142.28 503.48L149.46 510.94L156.93 518.12L164.66 525.02L172.66 531.62L180.9 537.92L189.4 543.9L198.13 549.55L207.08 554.88L216.26 559.87L225.64 564.5L235.22 568.78L245 572.7L254.96 576.24L265.1 579.39L275.4 582.15L285.86 584.51L296.46 586.47L307.21 588L318.09 589.1L329.09 589.77L340.2 590L351.31 589.77L362.32 589.1L373.19 588L383.94 586.47L394.55 584.51L405 582.15L415.31 579.39L425.44 576.24L435.4 572.7L445.18 568.78L454.76 564.5L464.15 559.87L473.32 554.88L482.28 549.55L491 543.9L499.5 537.92L507.75 531.62L515.74 525.02L523.48 518.12L530.94 510.94L538.12 503.48L545.02 495.74L551.62 487.75L557.92 479.5L563.9 471L569.55 462.28L574.88 453.32L579.87 444.15L584.5 434.76L588.78 425.18L592.7 415.4L596.24 405.44L599.39 395.31L602.15 385L604.51 374.55L606.47 363.94L608 353.19L609.1 342.32L609.77 331.31L610 320.2L609.77 309.09L609.1 298.09L608 287.21L606.47 276.46L604.51 265.86L602.15 255.4L599.39 245.1L596.24 234.96L592.7 225L588.78 215.22L584.5 205.64L579.87 196.26L574.88 187.08L569.55 178.13L563.9 169.4L557.92 160.9L551.62 152.66L545.02 144.66L538.12 136.93L530.94 129.46L523.48 122.28L515.74 115.38L507.75 108.78L499.5 102.49L491 96.51L482.28 90.85L473.32 85.52L464.15 80.54L454.76 75.9L445.18 71.62L435.4 67.7L425.44 64.17L415.31 61.01L405 58.25L394.55 55.89L383.94 53.94L373.19 52.4L362.32 51.3L351.31 50.63L340.2 50.4L329.09 50.63L318.09 51.3Z" id="bfF09khUw"></path><path d="M115.51 348.99L121.48 349.66L127.52 350.45L133.61 351.36L139.76 352.39L145.97 353.54L152.23 354.82L158.56 356.21L164.95 357.73L171.39 359.36L177.89 361.12L184.46 363L191.08 365L197.76 367.13L204.5 369.37L211.3 371.73L218.15 374.22L225.07 376.83L232.05 379.55L239.08 382.4L246.17 385.37L253.33 388.47L260.54 391.68L267.81 395.01L275.14 398.47L278.16 399.95L281.3 401.54L284.55 403.24L287.9 405.01L291.35 406.85L294.87 408.74L298.47 410.67L302.13 412.61L305.84 414.54L309.6 416.46L313.39 418.35L317.21 420.18L321.05 421.95L324.89 423.63L328.74 425.21L332.57 426.68L336.39 428L340.17 429.18L343.92 430.19L347.62 431.01L351.27 431.64L354.85 432.04L358.36 432.21L361.78 432.13L365.11 431.79L368.34 431.15L371.45 430.22L374.45 428.96L377.32 427.38L380.05 425.44L382.63 423.13L385.05 420.44L387.31 417.35L389.39 413.83L391.29 409.89L392.99 405.49L394.49 400.62L395.78 395.27L396.85 389.42L397.69 383.05L397.91 381.02L398.13 379.06L398.36 377.17L398.59 375.34L398.83 373.59L399.08 371.9L399.34 370.29L399.6 368.75L399.89 367.29L400.18 365.9L400.5 364.59L400.83 363.36L401.18 362.21L401.55 361.15L401.94 360.16L402.36 359.26L402.81 358.45L403.28 357.73L403.79 357.09L404.32 356.54L404.89 356.09L405.5 355.73L406.14 355.46L406.81 355.29L407.53 355.22L408.29 355.25L409.09 355.37L409.94 355.6L410.83 355.93L411.77 356.37L412.76 356.91L413.81 357.56L414.9 358.31L416.05 359.18L417.26 360.16L418.52 361.25L419.84 362.45L421.23 363.78L422.68 365.21L424.19 366.77L427.49 370.19L430.82 373.59L434.2 376.95L437.62 380.27L441.1 383.55L444.63 386.78L448.23 389.95L451.9 393.06L455.65 396.11L459.48 399.09L463.4 401.99L467.42 404.8L471.54 407.53L475.77 410.17L480.12 412.71L484.58 415.14L489.18 417.46L493.9 419.67L498.77 421.75L503.78 423.71L508.94 425.54L514.26 427.23L519.74 428.77L525.4 430.17L531.23 431.42L537.24 432.5L543.44 433.42L549.41 434.12L549.31 434.3L544.98 441.77L540.4 449.06L535.56 456.17L530.47 463.09L525.14 469.82L519.57 476.35L513.78 482.67L507.77 488.79L501.54 494.68L495.1 500.34L488.46 505.78L481.62 510.97L474.6 515.93L467.38 520.63L460 525.07L452.44 529.25L444.71 533.16L436.83 536.8L428.8 540.15L420.62 543.21L412.3 545.98L403.85 548.45L395.27 550.61L386.58 552.45L377.77 553.97L368.85 555.17L359.83 556.03L350.72 556.55L341.52 556.72L331.73 556.53L322.05 555.94L312.47 554.96L303.01 553.61L293.67 551.89L284.46 549.82L275.39 547.38L266.47 544.61L257.7 541.49L249.09 538.04L240.65 534.28L232.39 530.19L224.31 525.8L216.43 521.11L208.74 516.13L201.27 510.87L194 505.32L186.96 499.51L180.15 493.44L173.58 487.12L167.26 480.55L161.18 473.74L155.37 466.7L149.83 459.43L144.57 451.95L139.58 444.27L134.89 436.38L130.5 428.31L126.42 420.04L122.65 411.61L119.21 403L116.09 394.23L113.31 385.31L110.88 376.24L108.8 367.03L107.08 357.69L105.73 348.23L105.73 348.17L109.6 348.45L115.51 348.99ZM360.99 82.42L370.57 83.4L380.03 84.75L389.37 86.46L398.57 88.54L407.64 90.98L416.57 93.75L425.34 96.87L433.94 100.32L442.38 104.08L450.64 108.17L458.72 112.56L466.61 117.25L474.29 122.23L481.77 127.49L489.03 133.03L496.07 138.85L502.88 144.92L509.45 151.24L515.78 157.81L521.85 164.62L527.66 171.66L533.2 178.93L538.47 186.41L543.45 194.09L548.14 201.98L552.53 210.05L556.61 218.32L560.38 226.75L563.83 235.36L566.94 244.13L569.72 253.05L572.15 262.12L574.23 271.33L575.64 278.99L571.91 280.73L567.14 282.51L561.97 283.99L556.38 285.13L550.35 285.89L543.84 286.22L536.83 286.09L529.3 285.46L521.22 284.29L512.55 282.54L503.28 280.17L493.38 277.14L482.81 273.42L471.56 268.95L459.59 263.71L446.89 257.66L438.12 253.43L429.27 249.4L420.33 245.55L411.3 241.9L402.18 238.43L392.98 235.16L383.68 232.07L374.31 229.17L364.84 226.46L355.28 223.94L345.64 221.61L335.91 219.47L326.1 217.52L316.19 215.76L306.2 214.18L296.12 212.8L285.95 211.61L275.7 210.6L265.36 209.79L254.93 209.16L244.41 208.72L233.81 208.48L223.11 208.42L212.33 208.55L201.47 208.87L190.51 209.38L179.47 210.08L168.34 210.97L157.12 212.05L145.82 213.32L134.43 214.77L127.69 215.74L130.5 210.05L134.89 201.98L139.58 194.09L144.57 186.41L149.83 178.93L155.37 171.66L161.18 164.62L167.26 157.81L173.58 151.24L180.15 144.92L186.96 138.85L194 133.03L201.27 127.49L208.74 122.23L216.43 117.25L224.31 112.56L232.39 108.17L240.65 104.08L249.09 100.32L257.7 96.87L266.47 93.75L275.39 90.98L284.46 88.54L293.67 86.46L303.01 84.75L312.47 83.4L322.05 82.42L331.73 81.83L341.52 81.64L351.3 81.83L360.99 82.42Z" id="a8qKBvwp6J"></path></defs><g><g><g><use xlink:href="#bfF09khUw" opacity="1" fill="#f33535" fill-opacity="1"></use></g><g><use xlink:href="#a8qKBvwp6J" opacity="1" fill="#f33535" fill-opacity="1"></use></g></g></g></svg>