<?xml version="1.0" encoding="UTF-8" standalone="no"?>
<!DOCTYPE svg PUBLIC "-//W3C//DTD SVG 1.1//EN" "http://www.w3.org/Graphics/SVG/1.1/DTD/svg11.dtd">
<svg version="1.1" xmlns="http://www.w3.org/2000/svg" xmlns:xlink="http://www.w3.org/1999/xlink" preserveAspectRatio="xMidYMid meet" viewBox="0 0 640 640" width="640" height="640"><defs><path d="M323.75 354.03L328.85 355.05L333.81 356.32L338.65 357.83L343.35 359.57L347.93 361.52L352.39 363.67L356.72 366L360.93 368.49L365.02 371.15L369 373.95L372.85 376.87L376.59 379.91L380.21 383.05L383.72 386.27L387.12 389.57L390.4 392.92L393.58 396.31L396.65 399.74L399.61 403.18L402.47 406.62L405.22 410.05L407.88 413.46L410.43 416.82L412.88 420.13L415.23 423.37L417.49 426.53L419.65 429.59L421.72 432.54L423.7 435.36L425.58 438.05L427.38 440.59L429.09 442.96L430.71 445.14L432.24 447.14L433.69 448.92L435.06 450.49L436.35 451.81L439.95 455.12L443.64 458.19L447.4 461L451.25 463.56L455.18 465.87L459.18 467.94L463.27 469.75L467.44 471.31L471.7 472.63L476.03 473.69L480.44 474.51L484.94 475.07L489.51 475.39L494.17 475.46L498.91 475.28L503.73 474.84L508.63 474.16L513.61 473.23L518.67 472.05L523.82 470.62L529.04 468.94L534.35 467.01L538.81 465.21L537.07 467.9L531.2 476.23L525.03 484.32L518.55 492.16L511.79 499.75L504.74 507.07L497.42 514.11L489.84 520.88L482 527.35L473.91 533.52L465.58 539.39L457.02 544.94L448.23 550.16L439.24 555.05L430.03 559.6L420.63 563.8L411.04 567.64L401.28 571.11L391.34 574.2L381.23 576.91L370.98 579.22L360.57 581.14L350.03 582.64L339.37 583.73L328.58 584.38L317.68 584.6L306.78 584.38L295.99 583.73L285.32 582.64L274.78 581.14L264.38 579.22L254.12 576.91L244.02 574.2L234.08 571.11L224.31 567.64L214.72 563.8L205.32 559.6L196.12 555.05L187.12 550.16L178.34 544.94L169.78 539.39L161.45 533.52L153.36 527.35L145.52 520.88L137.93 514.11L130.61 507.07L123.56 499.75L116.8 492.16L110.33 484.32L104.15 476.23L98.29 467.9L92.74 459.34L87.52 450.56L82.63 441.56L78.08 432.35L73.88 422.95L70.04 413.37L66.57 403.6L65.6 400.49L75.77 402.15L88.34 404.07L100.56 405.79L112.43 407.32L123.95 408.65L135.12 409.79L145.94 410.73L156.41 411.47L166.53 412.02L176.3 412.37L185.73 412.52L194.8 412.48L203.52 412.24L211.9 411.81L219.92 411.18L227.6 410.35L234.92 409.33L241.9 408.11L248.52 406.7L254.8 405.09L260.73 403.28L266.3 401.27L271.53 399.08L276.41 396.68L280.94 394.09L285.12 391.3L288.95 388.32L292.43 385.14L295.56 381.76L298.34 378.19L300.77 374.42L302.85 370.46L304.58 366.29L305.96 361.94L306.99 357.38L307.68 352.64L313.17 352.81L318.53 353.28L318.53 353.28L323.75 354.03ZM350.03 57.36L360.57 58.86L370.98 60.78L381.23 63.09L391.34 65.8L401.28 68.89L411.04 72.36L420.63 76.2L430.03 80.4L439.24 84.95L448.23 89.84L457.02 95.06L465.58 100.61L473.91 106.48L482 112.65L489.84 119.12L497.42 125.89L504.74 132.93L511.79 140.25L518.55 147.84L525.03 155.68L531.2 163.77L537.07 172.1L542.61 180.66L547.84 189.44L552.73 198.44L557.28 207.65L561.47 217.05L565.31 226.63L568.78 236.4L571.88 246.34L574.59 256.44L576.9 266.7L578.82 277.1L580.09 286.06L570 290.89L559.45 295.61L548.89 300L538.33 304.06L527.77 307.8L517.2 311.21L506.62 314.29L496.04 317.05L485.46 319.47L474.87 321.57L464.27 323.35L453.68 324.79L443.07 325.91L432.46 326.7L421.85 327.17L411.23 327.31L400.61 327.12L389.98 326.6L379.35 325.76L368.72 324.59L358.07 323.09L347.43 321.26L336.78 319.11L326.12 316.63L315.46 313.83L304.8 310.69L294.13 307.23L283.45 303.44L272.77 299.33L262.09 294.89L251.4 290.12L240.7 285.02L230.01 279.6L219.3 273.85L214.25 271.13L209.2 268.57L204.14 266.16L199.08 263.9L194 261.79L188.93 259.83L183.85 258.02L178.76 256.36L173.67 254.85L168.57 253.5L163.47 252.29L158.36 251.23L153.25 250.33L148.13 249.57L143 248.97L137.87 248.51L132.74 248.21L127.6 248.05L122.45 248.05L117.3 248.2L112.14 248.49L106.98 248.94L101.81 249.54L96.64 250.29L91.46 251.19L86.27 252.24L81.08 253.44L75.89 254.79L70.69 256.29L65.48 257.95L60.27 259.75L60 259.85L60.77 256.44L63.48 246.34L66.57 236.4L70.04 226.63L73.88 217.05L78.08 207.65L82.63 198.44L87.52 189.44L92.74 180.66L98.29 172.1L104.15 163.77L110.33 155.68L116.8 147.84L123.56 140.25L130.61 132.93L137.93 125.89L145.52 119.12L153.36 112.65L161.45 106.48L169.78 100.61L178.34 95.06L187.12 89.84L196.12 84.95L205.32 80.4L214.72 76.2L224.31 72.36L234.08 68.89L244.02 65.8L254.12 63.09L264.38 60.78L274.78 58.86L285.32 57.36L295.99 56.27L306.78 55.62L317.68 55.4L328.58 55.62L339.37 56.27L339.37 56.27L350.03 57.36Z" id="a1CEnM2lFN"></path><path d="M326.44 353.06L331.57 353.77L336.58 354.65L341.47 355.69L346.25 356.89L350.9 358.24L355.44 359.73L359.86 361.34L364.17 363.08L368.36 364.93L372.44 366.88L376.4 368.92L380.25 371.05L383.99 373.25L387.62 375.52L391.14 377.84L394.55 380.21L397.85 382.62L401.04 385.07L404.12 387.53L407.1 390L409.98 392.47L412.75 394.94L415.41 397.39L417.97 399.82L420.43 402.21L422.79 404.56L425.05 406.86L427.21 409.1L429.26 411.27L431.22 413.35L433.09 415.35L434.85 417.25L436.52 419.05L438.1 420.73L439.58 422.28L440.96 423.7L442.26 424.98L445.86 428.31L449.54 431.42L453.29 434.31L457.12 436.99L461.03 439.45L465.02 441.7L469.08 443.72L473.22 445.53L477.44 447.13L481.73 448.5L486.1 449.66L490.55 450.61L495.08 451.34L499.68 451.85L504.36 452.14L509.11 452.22L513.95 452.08L518.85 451.72L523.84 451.15L528.91 450.36L534.05 449.35L539.26 448.13L544.56 446.69L549.93 445.03L552.66 444.1L549.45 450.01L544.22 458.79L538.67 467.36L532.81 475.69L526.64 483.78L520.16 491.62L513.4 499.2L506.35 506.52L499.03 513.57L491.45 520.33L483.61 526.81L475.52 532.98L467.19 538.84L458.63 544.39L449.84 549.62L440.84 554.51L431.64 559.05L422.24 563.25L412.65 567.09L402.88 570.56L392.94 573.66L382.84 576.36L372.59 578.68L362.18 580.59L351.64 582.1L340.97 583.18L330.19 583.84L319.29 584.06L308.39 583.84L297.6 583.18L286.93 582.1L276.39 580.59L265.99 578.68L255.73 576.36L245.63 573.66L235.69 570.56L225.92 567.09L216.33 563.25L206.93 559.05L197.73 554.51L188.73 549.62L179.95 544.39L171.39 538.84L163.06 532.98L154.97 526.81L147.12 520.33L139.54 513.57L132.22 506.52L125.17 499.2L118.41 491.62L111.94 483.78L105.76 475.69L99.9 467.36L94.35 458.79L89.13 450.01L84.24 441.01L79.69 431.81L75.49 422.41L71.65 412.82L68.18 403.05L67.74 401.64L77.05 403.53L92.46 406.52L107.36 409.25L121.75 411.73L135.63 413.96L148.99 415.94L161.85 417.66L174.2 419.13L186.04 420.35L197.37 421.32L208.18 422.04L218.49 422.5L228.29 422.71L237.57 422.67L246.35 422.38L254.61 421.83L262.37 421.03L269.61 419.98L276.35 418.68L282.57 417.12L288.29 415.32L293.49 413.26L298.18 410.94L302.37 408.38L306.04 405.56L309.2 402.5L311.85 399.17L313.99 395.6L315.63 391.78L316.75 387.7L317.36 383.37L317.46 378.79L317.05 373.95L316.13 368.87L314.7 363.53L312.76 357.93L310.31 352.09L315.81 352.22L321.18 352.54L321.18 352.54L326.44 353.06ZM544.6 300L535.1 302.87L525.55 305.42L515.96 307.67L506.33 309.61L496.66 311.24L486.95 312.57L477.19 313.58L467.39 314.29L457.55 314.69L447.67 314.78L437.74 314.57L427.78 314.04L417.77 313.21L407.71 312.07L397.62 310.62L387.48 308.87L377.31 306.8L367.09 304.43L356.82 301.75L346.52 298.76L336.17 295.47L325.78 291.86L315.35 287.95L304.88 283.73L294.36 279.2L283.8 274.37L273.2 269.22L262.56 263.77L251.88 258.01L246.81 255.31L241.7 252.77L236.55 250.41L231.35 248.22L226.11 246.19L220.83 244.34L215.5 242.65L210.14 241.14L204.73 239.79L199.27 238.62L193.78 237.61L188.24 236.77L182.66 236.1L177.03 235.61L171.37 235.28L165.66 235.12L159.9 235.13L154.11 235.31L148.27 235.66L142.39 236.18L136.46 236.87L130.49 237.73L124.48 238.76L118.43 239.96L112.34 241.33L106.2 242.86L100.02 244.57L93.79 246.45L87.52 248.49L81.21 250.71L74.86 253.1L68.46 255.65L62.02 258.38L61.8 258.48L62.38 255.9L65.09 245.8L68.18 235.86L71.65 226.09L75.49 216.5L79.69 207.1L84.24 197.9L89.13 188.9L94.35 180.12L99.9 171.56L105.76 163.23L111.94 155.14L118.41 147.29L125.17 139.71L132.22 132.39L139.54 125.34L147.12 118.58L154.97 112.11L163.06 105.93L171.39 100.07L179.95 94.52L188.73 89.29L197.73 84.4L206.93 79.86L216.33 75.66L216.5 75.59L383.04 209.74L383.22 209.88L383.41 210.01L383.61 210.14L383.8 210.25L384 210.36L384.2 210.46L384.41 210.55L384.61 210.63L384.82 210.71L385.03 210.77L385.25 210.83L385.46 210.87L385.68 210.91L385.89 210.94L386.11 210.97L386.33 210.98L386.55 210.99L386.76 210.98L386.98 210.97L387.2 210.95L387.41 210.93L387.63 210.89L387.84 210.85L388.05 210.8L388.26 210.74L388.47 210.67L388.67 210.59L388.88 210.51L389.07 210.41L389.27 210.31L389.46 210.21L389.65 210.09L389.84 209.97L390.02 209.83L390.19 209.69L390.37 209.55L390.53 209.39L390.69 209.23L390.85 209.06L391 208.88L391.14 208.69L391.28 208.5L391.4 208.31L391.52 208.12L391.62 207.92L391.72 207.71L391.81 207.51L391.9 207.3L391.97 207.09L392.03 206.88L392.09 206.67L392.14 206.46L392.18 206.24L392.21 206.02L392.23 205.81L392.25 205.59L392.25 205.37L392.25 205.15L392.24 204.94L392.22 204.72L392.19 204.5L392.16 204.29L392.11 204.08L392.06 203.87L392 203.66L391.93 203.45L391.85 203.24L391.77 203.04L391.68 202.84L391.58 202.65L391.47 202.45L391.35 202.27L391.23 202.08L391.1 201.9L390.96 201.72L390.81 201.55L390.65 201.39L390.49 201.22L390.32 201.07L390.14 200.92L228.65 70.85L235.69 68.35L245.63 65.26L255.73 62.55L262.92 60.92L557.25 295.65L554.06 296.83L554.06 296.83L544.6 300ZM351.64 56.81L362.18 58.32L372.59 60.23L382.84 62.55L392.94 65.26L402.88 68.35L412.65 71.82L422.24 75.66L431.64 79.86L440.84 84.4L449.84 89.29L458.63 94.52L467.19 100.07L475.52 105.93L483.61 112.11L491.45 118.58L499.03 125.34L506.35 132.39L513.4 139.71L520.16 147.29L526.64 155.14L532.81 163.23L538.67 171.56L544.22 180.12L549.45 188.9L554.34 197.9L558.89 207.1L563.08 216.5L566.92 226.09L570.39 235.86L573.49 245.8L576.2 255.9L578.51 266.16L580.43 276.56L581.73 285.67L572.86 289.56L569.48 290.92L277.59 58.15L286.93 56.81L297.6 55.73L308.39 55.07L319.29 54.85L330.19 55.07L340.97 55.73L340.97 55.73L351.64 56.81Z" id="a14QGUb8sf"></path><path d="M359.13 1.95L371.88 3.77L384.46 6.09L396.86 8.9L409.08 12.18L421.1 15.93L432.91 20.14L444.51 24.79L455.88 29.88L467.01 35.39L477.89 41.32L488.51 47.65L498.86 54.38L508.94 61.48L518.72 68.97L528.2 76.81L537.38 85.01L546.23 93.55L554.75 102.42L562.93 111.62L570.76 121.12L578.22 130.93L585.32 141.02L592.03 151.4L598.35 162.05L604.26 172.95L609.76 184.11L614.84 195.5L619.48 207.12L623.67 218.96L627.42 231.01L630.69 243.25L633.49 255.68L635.81 268.29L637.63 281.07L638.94 294L639.73 307.07L640 320.29L639.73 333.5L638.94 346.57L637.63 359.5L635.81 372.28L633.49 384.89L630.69 397.32L627.42 409.56L623.67 421.61L619.48 433.45L614.84 445.07L609.76 456.47L604.26 467.62L598.35 478.53L592.03 489.17L585.32 499.55L578.22 509.64L570.76 519.45L562.93 528.95L554.75 538.15L546.23 547.02L537.38 555.56L528.2 563.76L518.72 571.6L508.94 579.09L498.86 586.2L488.51 592.92L477.89 599.25L467.01 605.18L455.88 610.69L444.51 615.78L432.91 620.43L421.1 624.64L409.08 628.39L396.86 631.67L384.46 634.48L371.88 636.8L359.13 638.62L346.23 639.94L333.18 640.73L320 641L306.82 640.73L293.77 639.94L280.87 638.62L268.12 636.8L255.54 634.48L243.14 631.67L230.92 628.39L218.9 624.64L207.09 620.43L195.49 615.78L184.12 610.69L172.99 605.18L162.11 599.25L151.49 592.92L141.14 586.2L131.06 579.09L121.28 571.6L111.8 563.76L102.62 555.56L93.77 547.02L85.25 538.15L77.07 528.95L69.24 519.45L61.78 509.64L54.68 499.55L47.97 489.17L41.65 478.53L35.74 467.62L30.24 456.47L25.16 445.07L20.52 433.45L16.33 421.61L12.58 409.56L9.31 397.32L6.51 384.89L4.19 372.28L2.37 359.5L1.06 346.57L0.27 333.5L0 320.29L0.27 307.07L1.06 294L2.37 281.07L4.19 268.29L6.51 255.68L9.31 243.25L12.58 231.01L16.33 218.96L20.52 207.12L25.16 195.5L30.24 184.11L35.74 172.95L41.65 162.05L47.97 151.4L54.68 141.02L61.78 130.93L69.24 121.12L77.07 111.62L85.25 102.42L93.77 93.55L102.62 85.01L111.8 76.81L121.28 68.97L131.06 61.48L141.14 54.38L151.49 47.65L162.11 41.32L172.99 35.39L184.12 29.88L195.49 24.79L207.09 20.14L218.9 15.93L230.92 12.18L243.14 8.9L255.54 6.09L268.12 3.77L280.87 1.95L293.77 0.64L306.82 -0.16L320 -0.43L333.18 -0.16L346.23 0.64L346.23 0.64L359.13 1.95ZM284.54 27.46L272.99 29.14L261.59 31.28L250.34 33.87L239.27 36.9L228.38 40.36L217.67 44.23L207.16 48.52L196.86 53.22L186.78 58.3L176.91 63.76L167.29 69.6L157.91 75.8L148.78 82.36L139.91 89.26L131.31 96.49L123 104.05L114.98 111.93L107.26 120.11L99.84 128.59L92.75 137.35L85.98 146.39L79.56 155.7L73.47 165.27L67.75 175.09L62.39 185.14L57.4 195.43L52.8 205.93L48.6 216.65L44.79 227.57L41.4 238.68L38.43 249.97L35.9 261.43L33.8 273.06L32.15 284.84L30.96 296.76L30.24 308.82L30 321L30.24 333.18L30.96 345.24L32.15 357.16L33.8 368.94L35.9 380.57L38.43 392.03L41.4 403.32L44.79 414.43L48.6 425.35L52.8 436.07L57.4 446.57L62.39 456.86L67.75 466.91L73.47 476.73L79.56 486.3L85.98 495.61L92.75 504.65L99.84 513.41L107.26 521.89L114.98 530.07L123 537.95L131.31 545.51L139.91 552.74L148.78 559.64L157.91 566.2L167.29 572.4L176.91 578.24L186.78 583.7L196.86 588.78L207.16 593.48L217.67 597.77L228.38 601.64L239.27 605.1L250.34 608.13L261.59 610.72L272.99 612.86L284.54 614.54L296.23 615.75L308.05 616.48L320 616.73L331.95 616.48L343.77 615.75L355.46 614.54L367.01 612.86L378.41 610.72L389.66 608.13L400.73 605.1L411.62 601.64L422.33 597.77L432.84 593.48L443.14 588.78L453.22 583.7L463.09 578.24L472.71 572.4L482.09 566.2L491.22 559.64L500.09 552.74L508.69 545.51L517 537.95L525.02 530.07L532.74 521.89L540.16 513.41L547.25 504.65L554.02 495.61L560.44 486.3L566.53 476.73L572.25 466.91L577.61 456.86L582.6 446.57L587.2 436.07L591.4 425.35L595.21 414.43L598.6 403.32L601.57 392.03L604.1 380.57L606.2 368.94L607.85 357.16L609.04 345.24L609.76 333.18L610 321L609.76 308.82L609.04 296.76L607.85 284.84L606.2 273.06L604.1 261.43L601.57 249.97L598.6 238.68L595.21 227.57L591.4 216.65L587.2 205.93L582.6 195.43L577.61 185.14L572.25 175.09L566.53 165.27L560.44 155.7L554.02 146.39L547.25 137.35L540.16 128.59L532.74 120.11L525.02 111.93L517 104.05L508.69 96.49L500.09 89.26L491.22 82.36L482.09 75.8L472.71 69.6L463.09 63.76L453.22 58.3L443.14 53.22L432.84 48.52L422.33 44.23L411.62 40.36L400.73 36.9L389.66 33.87L378.41 31.28L367.01 29.14L355.46 27.46L343.77 26.25L331.95 25.52L320 25.27L308.05 25.52L296.23 26.25L296.23 26.25L284.54 27.46Z" id="aH6kQjoid"></path><path d="M614.88 284.19L617.23 295.8L619.09 307.41L620.45 319L621.34 330.57L621.75 342.1L621.69 353.57L621.17 364.99L620.19 376.34L618.77 387.6L616.9 398.76L614.6 409.82L611.88 420.76L608.73 431.57L605.17 442.24L601.2 452.75L596.83 463.1L592.06 473.28L586.91 483.26L581.38 493.05L575.48 502.63L569.21 511.98L562.58 521.1L555.6 529.98L548.27 538.6L540.6 546.95L532.6 555.02L524.27 562.8L515.63 570.27L506.67 577.44L497.41 584.27L487.85 590.77L478 596.92L467.86 602.71L457.44 608.13L446.75 613.17L435.8 617.81L424.59 622.04L413.13 625.86L401.43 629.25L389.6 632.17L377.77 634.59L365.94 636.53L354.14 637.99L342.36 638.97L330.63 639.48L318.96 639.54L307.35 639.14L295.82 638.29L284.38 637L273.04 635.28L261.82 633.12L250.72 630.55L239.75 627.56L228.94 624.16L218.28 620.36L207.8 616.17L197.49 611.58L187.39 606.62L177.49 601.27L167.8 595.56L158.35 589.49L149.14 583.06L140.18 576.28L131.48 569.16L123.07 561.7L114.93 553.92L107.1 545.8L99.58 537.38L92.38 528.64L85.52 519.6L79 510.26L72.84 500.64L67.05 490.72L61.64 480.54L56.63 470.08L52.01 459.35L47.82 448.37L44.05 437.14L40.72 425.67L37.86 414.07L36.98 409.72L40.47 420.09L44.66 431.07L49.28 441.8L54.29 452.26L59.7 462.44L65.49 472.36L71.65 481.98L78.17 491.32L85.03 500.36L92.23 509.1L99.75 517.52L107.58 525.64L115.71 533.42L124.13 540.88L132.83 548L141.79 554.78L151 561.21L160.45 567.28L170.14 572.99L180.04 578.34L190.14 583.3L200.45 587.89L210.93 592.08L221.59 595.88L232.4 599.28L243.37 602.27L254.47 604.84L265.69 607L277.03 608.72L288.47 610.01L300 610.86L311.61 611.26L323.28 611.2L335.01 610.69L346.79 609.71L358.59 608.25L370.42 606.31L382.25 603.89L394.08 600.97L405.78 597.58L417.24 593.76L428.45 589.53L439.4 584.89L450.09 579.85L460.51 574.44L470.64 568.64L480.5 562.49L490.06 555.99L499.32 549.16L508.28 541.99L516.92 534.52L525.25 526.74L533.25 518.67L540.92 510.32L548.25 501.7L555.23 492.82L561.86 483.7L568.13 474.35L574.03 464.77L579.56 454.98L584.71 445L589.48 434.82L593.85 424.47L597.81 413.96L601.38 403.29L604.52 392.48L607.25 381.54L609.55 370.48L611.42 359.32L612.84 348.06L613.81 336.71L614.34 325.29L614.39 313.82L613.99 302.29L613.1 290.72L611.73 279.13L609.88 267.52L608.41 260.26L608.7 261.11L612.03 272.59L612.03 272.59L614.88 284.19ZM363.94 3.58L376.25 5.53L388.45 7.96L400.52 10.85L412.44 14.19L424.2 17.99L435.78 22.23L447.19 26.9L458.39 32L469.39 37.52L480.17 43.46L490.71 49.8L501 56.54L511.03 63.67L520.79 71.18L530.27 79.07L539.44 87.33L548.31 95.95L556.85 104.93L565.05 114.25L572.91 123.92L580.41 133.91L587.53 144.24L594.26 154.88L600.59 165.83L606.52 177.08L612.01 188.63L617.07 200.47L621.68 212.6L625.83 224.99L629.5 237.66L632.65 250.46L633.33 253.8L633.18 253.27L629.03 240.88L624.42 228.75L619.36 216.91L613.87 205.36L607.94 194.11L601.61 183.16L594.88 172.52L587.76 162.19L580.26 152.2L572.41 142.53L564.2 133.21L555.66 124.23L546.79 115.61L537.62 107.35L528.14 99.46L518.38 91.95L508.35 84.82L498.06 78.08L487.52 71.74L476.74 65.8L465.75 60.28L454.54 55.18L443.13 50.51L431.55 46.27L419.79 42.47L407.87 39.13L395.8 36.24L383.61 33.81L371.29 31.86L358.86 30.38L346.34 29.39L333.73 28.89L321.06 28.9L308.32 29.41L295.55 30.44L282.74 31.99L269.91 34.07L257.07 36.69L244.24 39.85L231.55 43.52L219.12 47.68L206.97 52.29L195.1 57.35L183.52 62.85L172.24 68.77L161.26 75.11L150.59 81.84L140.24 88.96L130.22 96.45L120.53 104.3L111.18 112.5L102.17 121.04L93.52 129.89L85.24 139.06L77.32 148.53L69.78 158.28L62.63 168.3L55.86 178.58L49.5 189.1L43.54 199.87L38 210.85L32.87 222.04L28.18 233.43L23.92 245L20.1 256.74L16.74 268.64L13.83 280.68L11.38 292.86L9.41 305.16L7.92 317.56L6.91 330.06L6.4 342.64L6.39 355.29L6.89 368L7.91 380.75L9.44 393.54L11.51 406.34L13.44 415.81L9.92 403.67L6.77 390.87L4.16 378.06L2.09 365.26L0.56 352.47L-0.46 339.72L-0.96 327.01L-0.95 314.36L-0.44 301.78L0.57 289.28L2.06 276.88L4.03 264.58L6.48 252.4L9.38 240.36L12.75 228.46L16.57 216.72L20.83 205.15L25.52 193.76L30.65 182.57L36.19 171.59L42.15 160.83L48.51 150.3L55.28 140.02L62.43 130L69.97 120.25L77.89 110.78L86.17 101.61L94.82 92.76L103.82 84.22L113.18 76.02L122.87 68.17L132.89 60.68L143.24 53.56L153.91 46.83L164.89 40.49L176.17 34.57L187.75 29.07L199.62 24.01L211.77 19.4L224.2 15.24L236.89 11.57L249.72 8.41L262.55 5.79L275.38 3.71L288.19 2.16L300.97 1.13L313.71 0.62L326.38 0.61L338.99 1.11L351.51 2.1L351.51 2.1L363.94 3.58Z" id="a4X9AdVK3"></path></defs><g><g><g><use xlink:href="#a1CEnM2lFN" opacity="0.4" fill="#134d77" fill-opacity="1"></use></g><g><use xlink:href="#a14QGUb8sf" opacity="1" fill="#134d77" fill-opacity="1"></use></g><g><use xlink:href="#aH6kQjoid" opacity="0.55" fill="#134d77" fill-opacity="1"></use></g><g><use xlink:href="#a4X9AdVK3" opacity="1" fill="#134d77" fill-opacity="1"></use></g></g></g></svg>